<?xml version="1.0" encoding="UTF-8"?>
<svg version="1.1" xmlns="http://www.w3.org/2000/svg" width="512" height="512">
<path d="M0 0 C0.78767663 -0.00436032 1.57535326 -0.00872064 2.38689888 -0.0132131 C5.03648253 -0.02419502 7.68554859 -0.01373374 10.33512878 -0.00342751 C12.24979068 -0.00688291 14.1644506 -0.01164667 16.07910633 -0.01760924 C21.34854065 -0.03016503 26.61781256 -0.02392805 31.88724756 -0.01465058 C37.56693799 -0.00787916 43.24659996 -0.01833184 48.92628479 -0.02659035 C60.0559822 -0.03995027 71.18561901 -0.03703988 82.31531882 -0.02835242 C91.35835503 -0.02158517 100.40137422 -0.020655 109.44441223 -0.02392387 C111.37288206 -0.02461342 111.37288206 -0.02461342 113.34031087 -0.0253169 C115.95184255 -0.02627605 118.56337423 -0.02724869 121.1749059 -0.02823468 C144.98080683 -0.03655102 168.786671 -0.02791761 192.59256609 -0.01220688 C214.33090875 0.00203025 236.06919869 0.00075638 257.80754089 -0.01358986 C282.22299914 -0.02964895 306.6384215 -0.03597115 331.05388546 -0.02675307 C333.65596453 -0.02579739 336.2580436 -0.02485428 338.86012268 -0.02392387 C340.78067568 -0.02322963 340.78067568 -0.02322963 342.74002773 -0.02252137 C351.7752041 -0.01992798 360.8103618 -0.02430999 369.84553528 -0.03136253 C380.85208394 -0.03976477 391.8585684 -0.03752429 402.86510968 -0.0215203 C408.48388914 -0.0136204 414.10256144 -0.01057524 419.72134018 -0.02046776 C424.86071878 -0.02937958 429.99989045 -0.02453994 435.13925016 -0.0085351 C437.00256691 -0.00517237 438.86590099 -0.00691465 440.72920668 -0.01416247 C443.25456752 -0.02323516 445.77921198 -0.01397937 448.30453491 0 C449.03438689 -0.0070235 449.76423887 -0.014047 450.51620758 -0.02128333 C454.8880741 0.02735694 457.69251363 0.65817389 461.15226746 3.37752342 C463.40628969 8.01650154 463.43817109 12.62672168 463.41105652 17.69026756 C463.41631348 18.9084845 463.41631348 18.9084845 463.42167664 20.15131187 C463.43044172 22.82185609 463.42466387 25.49213301 463.41789246 28.16267967 C463.41924048 30.02542738 463.42118215 31.88817474 463.4236908 33.75092125 C463.42663487 37.64870629 463.42236697 41.54639947 463.41300964 45.44417381 C463.40160762 50.43652997 463.40818388 55.42867125 463.42015457 60.42101955 C463.42738574 64.26518939 463.42507959 68.10930839 463.41989899 71.95347977 C463.41856638 73.79425583 463.42019656 75.63503654 463.42485809 77.47580719 C463.42994484 80.04872032 463.42218328 82.62128648 463.41105652 85.19417381 C463.41510498 85.9522332 463.41915344 86.71029259 463.42332458 87.49132347 C463.38335796 92.48740135 463.01898693 96.46837851 459.43351746 100.13533592 C456.47782127 101.74477323 453.99836367 101.94353706 450.65226746 102.25252342 C438.62603716 103.78858399 428.1893716 108.37017039 420.18351746 117.66267967 C413.11588055 127.11115189 409.0554356 138.49185456 410.15226746 150.37752342 C412.26076545 162.39762223 416.69705863 173.58039234 426.52336121 181.22127342 C434.58790426 186.74589508 443.36721432 190.12982833 453.15226746 190.87752342 C457.18945319 191.19663921 459.3537936 192.31669265 462.15226746 195.37752342 C463.60900883 199.23827602 463.29995149 203.37952383 463.29753113 207.44734764 C463.30256905 208.66271706 463.30256905 208.66271706 463.30770874 209.90263939 C463.31720181 212.57917886 463.31916103 215.25565566 463.32023621 217.93221092 C463.32344995 219.79542123 463.32681411 221.65863128 463.33032227 223.52184105 C463.33630943 227.42735441 463.33816259 231.33284564 463.33757019 235.23836327 C463.3374686 240.23738872 463.35111981 245.23627205 463.3683424 250.23526382 C463.37947298 254.08375764 463.38148907 257.93221721 463.38096046 261.78072548 C463.38213902 263.62347084 463.38655381 265.46621712 463.39429283 267.30894661 C463.40411394 269.88903508 463.40120631 272.4688165 463.39518738 275.04891014 C463.40080688 275.80651634 463.40642639 276.56412254 463.41221619 277.34468651 C463.38630219 281.72654677 463.08115539 285.41221025 461.15226746 289.37752342 C457.05393765 292.5985735 453.32980963 292.80340598 448.30453491 292.75504684 C447.12301997 292.76158733 447.12301997 292.76158733 445.91763604 292.76825994 C443.26805239 292.77924187 440.61898632 292.76878058 437.96940613 292.75847435 C436.05474423 292.76192975 434.14008431 292.76669352 432.22542858 292.77265608 C426.95599426 292.78521188 421.68672235 292.77897489 416.41728735 292.76969743 C410.73759692 292.762926 405.05793495 292.77337868 399.37825012 292.78163719 C388.24855271 292.79499712 377.1189159 292.79208673 365.98921609 292.78339927 C356.94617988 292.77663201 347.90316069 292.77570185 338.86012268 292.77897072 C337.57447613 292.77943042 336.28882958 292.77989012 334.96422404 292.78036375 C332.35269236 292.78132289 329.74116069 292.78229553 327.12962902 292.78328152 C303.32372809 292.79159786 279.51786391 292.78296445 255.71196882 292.76725373 C233.97362616 292.75301659 212.23533622 292.75429046 190.49699402 292.7686367 C166.08153577 292.7846958 141.66611341 292.791018 117.25064945 292.78179991 C114.64857038 292.78084424 112.04649131 292.77990112 109.44441223 292.77897072 C107.52385923 292.77827648 107.52385923 292.77827648 105.56450719 292.77756821 C96.52933082 292.77497482 87.49417311 292.77935683 78.45899963 292.78640938 C67.45245097 292.79481162 56.44596651 292.79257114 45.43942523 292.77656715 C39.82064577 292.76866724 34.20197347 292.76562208 28.58319473 292.7755146 C23.44381614 292.78442643 18.30464447 292.77958679 13.16528475 292.76358195 C11.301968 292.76021921 9.43863392 292.7619615 7.57532823 292.76920931 C5.04996739 292.778282 2.52532293 292.76902621 0 292.75504684 C-0.72985198 292.76207034 -1.45970396 292.76909384 -2.21167266 292.77633017 C-6.58353919 292.7276899 -9.38797872 292.09687295 -12.84773254 289.37752342 C-15.10175477 284.73854531 -15.13363618 280.12832516 -15.10652161 275.06477928 C-15.11002625 274.25263466 -15.11353088 273.44049004 -15.11714172 272.60373497 C-15.12590681 269.93319076 -15.12012896 267.26291384 -15.11335754 264.59236717 C-15.11470556 262.72961946 -15.11664724 260.8668721 -15.11915588 259.0041256 C-15.12209996 255.10634056 -15.11783206 251.20864737 -15.10847473 247.31087303 C-15.09707271 242.31851687 -15.10364897 237.3263756 -15.11561966 232.33402729 C-15.12285083 228.48985745 -15.12054468 224.64573846 -15.11536407 220.80156708 C-15.11403147 218.96079101 -15.11566165 217.1200103 -15.12032318 215.27923965 C-15.12540993 212.70632653 -15.11764837 210.13376036 -15.10652161 207.56087303 C-15.11057007 206.80281364 -15.11461853 206.04475426 -15.11878967 205.26372337 C-15.07882305 200.26764549 -14.71445202 196.28666834 -11.12898254 192.61971092 C-8.17328636 191.01027362 -5.69382876 190.81150978 -2.34773254 190.50252342 C9.67849775 188.96646286 20.11516331 184.38487645 28.12101746 175.09236717 C35.18865436 165.64389495 39.24909931 154.26319229 38.15226746 142.37752342 C36.04376946 130.35742462 31.60747628 119.1746545 21.78117371 111.53377342 C13.71663065 106.00915177 4.93732059 102.62521851 -4.84773254 101.87752342 C-8.88491828 101.55840764 -11.04925869 100.4383542 -13.84773254 97.37752342 C-15.30447392 93.51677082 -14.99541658 89.37552302 -14.99299622 85.3076992 C-14.99635483 84.49745293 -14.99971344 83.68720665 -15.00317383 82.85240746 C-15.0126669 80.17586798 -15.01462612 77.49939118 -15.01570129 74.82283592 C-15.01891504 72.95962562 -15.0222792 71.09641557 -15.02578735 69.2332058 C-15.03177452 65.32769244 -15.03362768 61.4222012 -15.03303528 57.51668358 C-15.03293368 52.51765813 -15.0465849 47.5187748 -15.06380749 42.51978302 C-15.07493807 38.6712892 -15.07695416 34.82282963 -15.07642555 30.97432137 C-15.07760411 29.13157601 -15.0820189 27.28882972 -15.08975792 25.44610023 C-15.09957902 22.86601177 -15.0966714 20.28623034 -15.09065247 17.7061367 C-15.09627197 16.9485305 -15.10189148 16.1909243 -15.10768127 15.41036034 C-15.08176728 11.02850008 -14.77662048 7.3428366 -12.84773254 3.37752342 C-8.74940274 0.15647334 -5.02527472 -0.04835913 0 0 Z M2.15226746 17.37752342 C2.15226746 39.81752342 2.15226746 62.25752342 2.15226746 85.37752342 C7.43226746 87.02752342 12.71226746 88.67752342 18.15226746 90.37752342 C33.67685924 97.64435362 45.1373694 109.2496649 51.15226746 125.37752342 C56.7615168 141.14649749 55.35161066 158.14563394 48.86711121 173.40096092 C41.34416636 188.36302951 28.62666245 198.53686241 13.15226746 204.37752342 C9.52226746 205.36752342 5.89226746 206.35752342 2.15226746 207.37752342 C2.15226746 229.81752342 2.15226746 252.25752342 2.15226746 275.37752342 C38.78226746 275.37752342 75.41226746 275.37752342 113.15226746 275.37752342 C113.48226746 270.42752342 113.81226746 265.47752342 114.15226746 260.37752342 C118.15226746 256.37752342 118.15226746 256.37752342 121.71476746 255.94002342 C125.15226746 256.37752342 125.15226746 256.37752342 128.15226746 259.37752342 C128.64726746 267.29752342 128.64726746 267.29752342 129.15226746 275.37752342 C233.76226746 275.37752342 338.37226746 275.37752342 446.15226746 275.37752342 C446.15226746 252.93752342 446.15226746 230.49752342 446.15226746 207.37752342 C440.87226746 205.72752342 435.59226746 204.07752342 430.15226746 202.37752342 C414.60292396 195.09910732 403.25679697 183.40934178 397.11711121 167.26424217 C391.67762474 150.9898272 393.06008117 133.84299963 400.15226746 118.31502342 C408.6909335 102.20636353 422.0003623 93.07349193 439.15226746 87.37752342 C442.61726746 86.38752342 442.61726746 86.38752342 446.15226746 85.37752342 C446.15226746 62.93752342 446.15226746 40.49752342 446.15226746 17.37752342 C341.54226746 17.37752342 236.93226746 17.37752342 129.15226746 17.37752342 C128.82226746 22.65752342 128.49226746 27.93752342 128.15226746 33.37752342 C125.15226746 36.37752342 125.15226746 36.37752342 121.71476746 36.81502342 C118.15226746 36.37752342 118.15226746 36.37752342 114.15226746 32.37752342 C113.65726746 24.95252342 113.65726746 24.95252342 113.15226746 17.37752342 C76.52226746 17.37752342 39.89226746 17.37752342 2.15226746 17.37752342 Z " fill="#082214" transform="translate(31.847732543945313,109.62247657775879)"/>
<path d="M0 0 C1.68959045 1.21791077 1.68959045 1.21791077 3 3 C3.38768005 5.42185974 3.38768005 5.42185974 3.40405273 8.32592773 C3.41673691 9.41393173 3.42942108 10.50193573 3.44248962 11.62290955 C3.43955399 12.79793533 3.43661835 13.97296112 3.43359375 15.18359375 C3.4388356 16.39064468 3.44407745 17.59769562 3.44947815 18.84132385 C3.45590634 21.39591705 3.45455112 23.95053983 3.44604492 26.50512695 C3.43754092 30.41866689 3.4662787 34.33074521 3.49804688 38.24414062 C3.49965904 40.72395789 3.49908107 43.20377776 3.49609375 45.68359375 C3.51294472 47.44309608 3.51294472 47.44309608 3.53013611 49.23814392 C3.51606468 50.87487816 3.51606468 50.87487816 3.50170898 52.54467773 C3.50154282 53.50381577 3.50137665 54.4629538 3.50120544 55.45115662 C2.85585671 58.73303009 1.56469141 59.92432503 -1 62 C-3 62.56640625 -3 62.56640625 -5 62.5625 C-5.99 62.59537109 -5.99 62.59537109 -7 62.62890625 C-10.34506734 61.57703937 -11.20360771 60.0131843 -13 57 C-13.5830858 53.09276214 -13.51250387 49.22108672 -13.4609375 45.27734375 C-13.45956284 43.57089439 -13.45956284 43.57089439 -13.4581604 41.82997131 C-13.4521261 39.42851582 -13.43638542 37.0270678 -13.41162109 34.62573242 C-13.37509902 30.94747228 -13.37060195 27.27021947 -13.37109375 23.59179688 C-13.36126295 21.25780378 -13.34960612 18.92381752 -13.3359375 16.58984375 C-13.33371185 15.48873764 -13.33148621 14.38763153 -13.32919312 13.25315857 C-13.31643341 12.22852005 -13.30367371 11.20388153 -13.29052734 10.14819336 C-13.28290375 9.24838242 -13.27528015 8.34857147 -13.26742554 7.42149353 C-12.98097565 4.82773765 -12.36511677 3.21001481 -11 1 C-7.4367155 -1.7714435 -4.20758349 -0.99451973 0 0 Z " fill="#082214" transform="translate(158,272)"/>
<path d="M0 0 C0.66 -0.00128906 1.32 -0.00257813 2 -0.00390625 C4.8958827 0.81621678 6.09417728 2.26097505 8 4.5625 C8.5146637 7.10461426 8.5146637 7.10461426 8.53344727 10.00195312 C8.5492836 11.08988159 8.56511993 12.17781006 8.58143616 13.29870605 C8.57399635 15.05350281 8.57399635 15.05350281 8.56640625 16.84375 C8.57570412 18.65220398 8.57570412 18.65220398 8.58518982 20.49719238 C8.59229268 23.04580884 8.58910598 25.59447165 8.57641602 28.14306641 C8.56255125 32.04806648 8.59661842 35.95067115 8.63476562 39.85546875 C8.63571679 42.33072975 8.63385817 44.80599377 8.62890625 47.28125 C8.64216446 48.4511145 8.65542267 49.620979 8.66908264 50.82629395 C8.57639743 58.87177228 8.57639743 58.87177228 5.68725586 62.33398438 C2.0186025 64.01115924 -0.15435105 63.63073582 -4 62.5625 C-6.05938216 60.98364034 -6.84571211 59.87107577 -8 57.5625 C-8.11051179 55.92478281 -8.15913334 54.28270173 -8.17700195 52.64135742 C-8.18983719 51.61656784 -8.20267242 50.59177826 -8.21589661 49.53593445 C-8.22328354 48.42450577 -8.23067047 47.31307709 -8.23828125 46.16796875 C-8.246353 45.02846268 -8.25442474 43.8889566 -8.26274109 42.71492004 C-8.27658987 40.29978969 -8.28730846 37.8846397 -8.29516602 35.46948242 C-8.31238115 31.77550176 -8.35626194 28.08241529 -8.40039062 24.38867188 C-8.41051706 22.04427743 -8.41903331 19.69987536 -8.42578125 17.35546875 C-8.45204338 15.69743477 -8.45204338 15.69743477 -8.47883606 14.00590515 C-8.45712667 6.33120524 -8.45712667 6.33120524 -6.09838867 2.36474609 C-3.83445056 0.42031432 -2.94323458 -0.09772459 0 0 Z " fill="#02140a" transform="translate(153,177.4375)"/>
</svg>
