<?xml version="1.0" standalone="no"?>
<!DOCTYPE svg PUBLIC "-//W3C//DTD SVG 20010904//EN"
 "http://www.w3.org/TR/2001/REC-SVG-20010904/DTD/svg10.dtd">
<svg version="1.0" xmlns="http://www.w3.org/2000/svg"
 width="545.000000pt" height="458.000000pt" viewBox="0 0 545.000000 458.000000"
 preserveAspectRatio="xMidYMid meet">

<g transform="translate(0.000000,458.000000) scale(0.100000,-0.100000)"
fill="#be8343" stroke="none">
<path d="M2839 4545 c-207 -41 -360 -135 -414 -253 -9 -20 -40 -86 -68 -145
l-51 -108 -81 7 c-244 19 -559 -65 -749 -200 -136 -97 -273 -268 -361 -451
-173 -361 -232 -887 -140 -1253 81 -317 297 -566 659 -757 l114 -61 -39 -33
c-66 -55 -73 -72 -79 -197 -5 -108 -7 -114 -35 -145 -44 -46 -102 -68 -236
-90 -139 -22 -196 -40 -264 -83 -71 -45 -99 -54 -196 -60 -99 -6 -150 -23
-174 -59 -16 -25 -17 -25 -52 -10 -20 8 -45 25 -55 38 -38 48 -102 36 -177
-34 -27 -25 -32 -37 -29 -62 6 -41 -45 -99 -88 -99 -36 0 -54 -16 -54 -46 0
-15 -12 -29 -36 -43 -25 -15 -42 -37 -61 -78 -33 -73 -68 -111 -109 -119 -71
-13 -69 -59 1 -51 63 7 103 40 136 113 28 62 62 104 83 104 6 0 19 -7 29 -14
16 -13 17 -19 4 -78 -8 -41 -29 -91 -56 -136 -32 -53 -42 -79 -39 -104 5 -51
28 -41 70 32 61 104 71 131 76 205 2 39 9 75 14 82 15 19 99 4 124 -22 41 -44
139 -40 199 7 43 34 57 80 49 156 l-7 65 24 -7 c93 -26 247 -56 291 -56 35 0
87 12 153 35 80 28 115 35 175 35 41 0 93 5 115 11 63 17 239 104 334 163 47
30 127 73 176 96 213 99 255 122 304 166 56 51 81 89 81 127 l0 24 203 6 c296
8 491 45 765 148 413 155 896 424 1282 715 173 130 285 228 436 378 139 139
232 259 283 366 34 71 36 81 36 176 0 97 -1 104 -38 175 -44 88 -148 213 -244
294 -140 120 -372 250 -578 325 -49 18 -95 38 -102 44 -6 6 -23 72 -38 146
-34 173 -81 293 -132 338 -84 74 -236 127 -453 157 -257 35 -327 48 -429 77
-58 16 -139 36 -179 44 -90 17 -284 17 -373 -1z m486 -78 c158 -40 306 -68
476 -91 157 -22 257 -49 355 -96 88 -43 121 -76 131 -133 10 -65 -61 -158
-159 -208 -24 -12 -93 -35 -155 -50 -143 -36 -203 -67 -336 -176 -250 -203
-315 -246 -483 -318 -48 -21 -131 -50 -183 -65 -52 -15 -97 -33 -99 -40 -11
-32 240 37 384 104 122 58 179 96 320 212 213 177 237 191 410 240 179 50 261
97 315 182 15 23 30 39 33 34 3 -5 8 -34 12 -63 l6 -54 -123 -120 c-94 -91
-154 -140 -248 -200 -129 -82 -150 -114 -33 -50 117 64 298 209 372 298 40 50
50 47 50 -14 0 -25 -20 -51 -122 -152 -130 -129 -133 -131 -423 -291 -77 -42
-151 -86 -165 -96 -63 -50 182 75 399 203 108 64 235 174 286 247 32 46 38 42
49 -27 6 -40 4 -43 -31 -70 -21 -15 -76 -59 -122 -96 -100 -81 -269 -193 -406
-269 -141 -79 -279 -139 -467 -204 -90 -31 -165 -58 -167 -60 -30 -29 139 11
289 69 274 106 675 344 856 510 30 27 56 48 58 46 2 -2 6 -22 10 -44 5 -38 4
-42 -42 -78 -290 -236 -352 -279 -556 -380 -76 -37 -136 -70 -134 -73 16 -16
284 118 428 214 126 83 165 114 248 194 34 34 64 59 66 57 1 -2 8 -38 15 -79
l12 -75 -71 -67 c-82 -77 -77 -90 9 -23 31 25 60 45 64 45 4 0 7 -13 7 -29 0
-23 -22 -50 -124 -149 -129 -125 -245 -217 -407 -321 -108 -70 -104 -79 9 -22
148 74 261 158 399 297 l132 132 7 -44 c6 -41 4 -45 -45 -101 -28 -32 -80 -84
-116 -116 -36 -32 -65 -62 -65 -68 0 -25 37 0 128 86 55 52 102 95 105 95 4 0
11 -16 16 -37 l10 -36 -139 -147 c-77 -81 -147 -153 -155 -160 -9 -7 -26 -27
-38 -44 -20 -29 -18 -28 28 10 28 23 106 99 173 168 68 69 125 126 127 126 21
0 -98 -248 -124 -258 -29 -10 -171 -145 -171 -162 0 -22 -332 -238 -495 -321
-219 -113 -379 -152 -620 -152 -300 -1 -619 66 -817 170 -138 72 -239 202
-298 383 -31 93 -31 97 -21 193 24 218 114 495 309 957 l87 205 5 -310 c5
-338 7 -348 66 -394 33 -26 44 -26 44 -1 0 11 -5 20 -11 20 -5 0 -19 21 -31
46 -19 45 -20 60 -15 388 4 267 8 355 21 404 30 119 80 189 174 246 119 71
241 97 437 92 118 -4 162 -10 280 -39z m-1047 -479 c-3 -22 -8 -23 -138 -29
-205 -10 -403 -70 -556 -169 -96 -63 -113 -91 -24 -41 196 111 315 154 466
170 186 19 224 20 224 6 0 -36 -12 -45 -62 -45 -64 0 -280 -44 -378 -76 -204
-69 -392 -205 -451 -328 l-19 -41 32 40 c140 172 291 268 519 329 101 27 317
61 327 52 3 -3 0 -17 -6 -31 -10 -22 -18 -25 -66 -25 -193 0 -487 -116 -623
-246 -77 -74 -72 -73 50 9 175 116 314 170 525 200 92 14 100 12 82 -22 -7
-14 -27 -20 -91 -26 -108 -9 -217 -37 -305 -79 -65 -31 -150 -93 -140 -103 2
-2 51 20 108 50 56 31 133 64 169 75 73 22 226 49 234 40 6 -6 -42 -137 -57
-155 -6 -7 -19 -13 -29 -13 -28 0 -136 -44 -117 -48 9 -2 42 4 74 12 32 8 59
14 61 13 1 -2 -21 -68 -48 -147 -60 -173 -125 -420 -135 -510 -4 -36 -13 -82
-20 -103 -58 -165 6 -398 152 -556 114 -123 253 -207 456 -275 196 -65 303
-81 558 -81 242 0 298 6 490 56 216 57 417 158 648 326 96 70 105 75 128 63
26 -15 13 -22 158 99 71 60 94 90 82 109 -3 5 11 40 31 78 47 88 48 138 5 296
-17 64 -36 162 -41 217 -6 55 -22 161 -36 236 -28 155 -31 189 -12 182 7 -2
57 -30 111 -60 55 -31 104 -53 109 -50 17 10 -42 51 -143 100 -52 26 -97 48
-99 49 -7 6 -18 84 -12 84 4 0 56 -25 116 -55 92 -45 104 -49 75 -25 -19 17
-70 49 -115 72 -87 45 -95 52 -95 86 0 27 3 27 118 -19 347 -137 657 -372 755
-573 95 -193 36 -348 -238 -634 -372 -388 -920 -761 -1487 -1011 -398 -176
-645 -239 -965 -248 -193 -6 -308 3 -483 38 -357 71 -730 270 -916 488 -96
114 -145 198 -192 331 -50 144 -66 253 -66 455 1 337 56 596 184 860 133 275
330 463 573 546 136 46 308 74 480 78 66 1 68 0 65 -21z m2302 -1290 c0 -42
-37 -151 -51 -146 -5 2 -30 39 -57 82 l-49 80 32 42 c18 23 43 68 56 99 l23
57 23 -89 c12 -48 23 -105 23 -125z m-2625 -113 c37 -113 109 -222 190 -288
118 -95 312 -171 565 -218 110 -21 154 -24 370 -23 243 0 246 0 365 32 80 21
160 52 240 91 112 55 417 240 493 298 19 14 37 21 42 17 10 -11 50 -130 50
-147 -1 -21 -224 -180 -370 -262 -312 -176 -696 -248 -1067 -200 -396 52 -682
197 -832 421 -66 98 -91 180 -91 297 0 50 3 87 8 82 4 -6 21 -50 37 -100z
m2455 18 c0 -9 -11 -26 -25 -39 -47 -44 -16 -75 39 -39 22 14 24 14 41 -19
l18 -33 -41 -37 c-22 -20 -51 -45 -65 -56 l-24 -19 -42 100 c-24 54 -41 103
-39 108 2 5 26 27 53 50 l50 40 18 -20 c9 -12 17 -28 17 -36z m-2483 -1342
c111 -37 258 -70 381 -86 28 -4 52 -10 52 -14 0 -4 -13 -28 -29 -53 -37 -58
-150 -135 -256 -172 -102 -36 -153 -62 -295 -149 -192 -118 -246 -137 -471
-166 -41 -6 -107 -24 -147 -41 -39 -16 -81 -30 -93 -30 -21 0 -258 46 -288 56
-11 4 -8 9 9 21 15 11 58 19 127 24 107 9 120 13 243 82 54 30 87 40 193 57
204 32 276 69 323 166 24 49 26 60 19 132 -8 94 2 121 67 176 23 20 42 36 43
36 1 0 56 -18 122 -39z m-1346 -581 c28 -15 24 -24 -17 -39 -19 -7 -51 -27
-70 -43 -24 -22 -38 -28 -46 -20 -18 18 1 50 49 81 52 34 56 35 84 21z m97
-73 c44 -35 64 -152 35 -207 -22 -42 -75 -66 -129 -56 -31 6 -35 10 -29 29 24
74 12 142 -31 176 -13 10 -24 21 -24 23 0 5 73 42 100 51 19 6 61 -2 78 -16z
m-168 -94 c15 -20 20 -38 18 -67 l-3 -41 -60 0 -60 0 0 50 c0 47 2 51 35 67
45 23 45 23 70 -9z m-145 -95 c2 -43 -15 -50 -47 -21 -21 19 -23 34 -6 51 25
25 50 10 53 -30z"/>
<path d="M2934 4405 c-34 -7 -81 -23 -105 -35 -49 -25 -129 -97 -129 -117 0
-8 14 2 30 21 42 47 101 74 217 97 132 27 139 29 122 40 -19 12 -62 10 -135
-6z"/>
<path d="M3090 4305 c-55 -16 -134 -56 -145 -76 -15 -23 9 -21 97 10 125 42
195 42 359 -1 107 -28 141 -33 246 -33 77 0 126 4 133 11 9 9 -20 13 -112 17
-105 4 -141 10 -243 41 -143 44 -251 54 -335 31z"/>
<path d="M2607 4120 c-4 -35 -7 -86 -7 -113 0 -28 -9 -110 -21 -181 -27 -164
-23 -276 10 -329 21 -34 55 -56 68 -43 3 3 -7 36 -23 73 -33 78 -36 143 -13
258 17 85 19 351 3 379 -9 15 -12 7 -17 -44z"/>
<path d="M2766 4157 c-30 -30 -64 -120 -71 -189 l-5 -53 15 63 c24 107 82 182
140 182 8 0 15 5 15 10 0 20 -70 11 -94 -13z"/>
<path d="M4112 4146 c-24 -40 -69 -76 -154 -121 l-62 -33 -26 51 c-14 29 -33
53 -43 55 -14 3 -13 -3 8 -40 28 -49 32 -83 10 -92 -10 -3 -23 7 -39 33 -26
40 -85 95 -94 87 -3 -3 6 -15 20 -26 25 -19 58 -76 58 -100 0 -10 -58 -40 -78
-40 -5 0 -12 16 -15 36 -7 41 -45 124 -57 124 -4 0 0 -16 11 -36 10 -20 21
-57 25 -82 6 -37 4 -48 -12 -59 -23 -17 -44 -17 -44 1 0 23 -41 148 -47 143
-3 -3 -1 -28 5 -54 25 -113 25 -113 -11 -128 l-32 -13 -6 64 c-3 36 -11 70
-19 77 -10 10 -11 4 -6 -31 3 -23 1 -61 -5 -85 -10 -39 -17 -45 -87 -85 -42
-23 -142 -90 -222 -148 -154 -112 -271 -176 -357 -194 -29 -7 -53 -16 -53 -22
0 -15 90 -2 166 23 75 24 158 73 324 192 150 107 226 146 430 221 272 101 404
177 445 257 32 61 2 84 -33 25z"/>
<path d="M3265 4123 c-73 -16 -145 -59 -145 -85 0 -6 8 -4 18 5 32 30 93 48
161 49 56 1 76 -3 116 -25 26 -15 50 -25 53 -23 2 3 -9 18 -25 35 -41 41 -113
59 -178 44z"/>
<path d="M3012 4032 c-90 -87 -122 -150 -122 -243 0 -52 5 -73 23 -99 36 -54
49 -47 22 12 -50 106 -23 201 92 319 36 38 64 71 61 74 -3 3 -37 -25 -76 -63z"/>
<path d="M2855 4019 c-37 -45 -74 -122 -85 -177 -9 -51 2 -128 24 -158 11 -15
13 -3 9 77 -6 110 3 153 51 232 19 31 33 57 31 57 -2 0 -15 -14 -30 -31z"/>
<path d="M3236 4035 c-21 -7 -44 -19 -50 -26 -8 -9 -6 -10 9 -4 86 34 166 30
215 -12 37 -31 48 -26 20 9 -19 25 -84 48 -132 48 -13 -1 -40 -7 -62 -15z"/>
<path d="M3005 3912 c-14 -21 -30 -63 -37 -93 -10 -48 -9 -59 10 -101 21 -48
69 -88 105 -88 23 0 22 17 -2 25 -11 3 -36 24 -56 47 -36 39 -37 43 -32 94 3
29 17 76 31 104 30 59 17 67 -19 12z"/>
<path d="M2682 3890 c0 -14 2 -19 5 -12 2 6 2 18 0 25 -3 6 -5 1 -5 -13z"/>
<path d="M3315 3879 c-4 -17 -22 -48 -41 -69 -38 -42 -35 -56 6 -35 42 22 78
113 51 129 -5 4 -12 -8 -16 -25z"/>
<path d="M3060 3796 c0 -51 75 -103 130 -89 29 8 25 23 -6 23 -46 0 -94 30
-101 61 -7 35 -23 38 -23 5z"/>
<path d="M3955 3718 c-49 -28 -153 -79 -229 -114 -76 -35 -141 -66 -144 -69
-16 -16 16 -16 70 -1 83 23 203 87 303 159 128 95 128 98 0 25z"/>
<path d="M2714 3673 c40 -113 92 -183 137 -183 30 0 22 13 -26 42 -35 21 -50
40 -80 102 -40 83 -52 98 -31 39z"/>
<path d="M2860 3600 c0 -19 64 -50 103 -50 50 0 47 16 -4 24 -23 4 -54 13 -70
22 -17 8 -29 10 -29 4z"/>
<path d="M3665 3454 c-55 -19 -153 -48 -217 -64 -119 -30 -188 -57 -188 -73 0
-4 8 -6 18 -3 9 2 94 25 187 51 208 56 279 81 301 106 22 25 17 24 -101 -17z"/>
<path d="M4329 3404 c-18 -22 -147 -120 -237 -179 -40 -26 -70 -50 -68 -53 7
-7 111 43 161 78 55 38 175 148 175 161 0 14 -16 10 -31 -7z"/>
<path d="M2516 3382 c17 -16 155 -62 184 -62 39 0 48 18 13 26 -15 3 -55 14
-87 25 -61 19 -128 26 -110 11z"/>
<path d="M2520 3216 c0 -10 102 -56 123 -56 34 0 11 24 -34 36 -24 7 -54 16
-66 19 -13 4 -23 4 -23 1z"/>
<path d="M3170 3193 c-99 -21 -156 -26 -277 -27 -84 -1 -148 -5 -144 -9 4 -4
39 -13 76 -19 111 -19 410 19 515 65 l35 15 -40 0 c-22 0 -96 -11 -165 -25z"/>
<path d="M4130 3144 c-236 -138 -390 -218 -584 -303 -27 -12 -46 -24 -43 -27
10 -11 239 87 407 173 152 78 321 181 335 203 14 22 -25 6 -115 -46z"/>
<path d="M2330 3175 c0 -10 125 -67 209 -95 106 -36 297 -70 389 -70 70 0 142
15 142 29 0 5 -78 11 -172 13 -151 5 -188 9 -288 36 -63 17 -152 44 -197 61
-46 17 -83 28 -83 26z"/>
<path d="M3445 2994 c-66 -25 -169 -58 -230 -72 -96 -23 -131 -26 -275 -26
-182 1 -222 9 -418 78 -111 40 -159 45 -109 12 43 -29 183 -73 309 -97 234
-45 571 -2 812 105 57 25 80 46 49 45 -10 0 -72 -20 -138 -45z"/>
<path d="M2246 2931 c50 -50 221 -121 291 -121 51 0 32 15 -49 40 -40 12 -111
37 -157 56 -91 36 -100 39 -85 25z"/>
<path d="M4155 2848 c-11 -6 -74 -46 -140 -88 -163 -105 -252 -148 -435 -210
-85 -29 -159 -57 -164 -62 -17 -14 37 -9 111 12 204 56 491 202 618 313 41 36
46 54 10 35z"/>
<path d="M3180 2753 c-83 -14 -330 -12 -432 3 -55 9 -47 -12 10 -26 26 -6 119
-14 207 -17 174 -6 281 5 349 37 l41 18 -45 0 c-25 0 -83 -7 -130 -15z"/>
<path d="M3645 2714 c-125 -48 -313 -99 -420 -114 -105 -15 -290 -18 -422 -7
-106 9 -126 -4 -35 -24 164 -37 558 7 794 87 91 31 188 75 188 85 0 12 -3 11
-105 -27z"/>
<path d="M2370 2692 c0 -24 115 -82 162 -82 44 0 28 13 -62 50 -41 17 -81 34
-87 37 -7 3 -13 1 -13 -5z"/>
<path d="M4015 2574 c-27 -14 -108 -58 -179 -96 -71 -39 -164 -85 -208 -103
-43 -18 -81 -35 -84 -37 -3 -3 19 -1 48 3 101 17 559 263 481 259 -5 -1 -30
-12 -58 -26z"/>
<path d="M2380 2544 c0 -8 122 -62 203 -88 207 -68 557 -77 686 -19 l36 17
-30 4 c-16 2 -68 -2 -115 -9 -120 -20 -345 -17 -450 5 -47 9 -138 35 -202 57
-123 41 -128 42 -128 33z"/>
<path d="M3329 2285 c-7 -6 -215 -32 -327 -40 -51 -4 -91 -9 -89 -12 15 -15
151 -23 229 -13 125 15 295 70 217 70 -14 0 -28 -2 -30 -5z"/>
<path d="M1362 3614 c-53 -62 -106 -143 -117 -184 -7 -25 -7 -25 13 -5 29 30
165 235 159 241 -2 3 -27 -21 -55 -52z"/>
<path d="M1993 3595 c-242 -65 -468 -256 -538 -454 -8 -22 -12 -41 -10 -41 2
0 36 47 75 105 122 178 246 278 442 353 54 20 98 40 98 45 0 9 -4 9 -67 -8z"/>
<path d="M4838 3454 c89 -80 166 -143 170 -139 13 13 -89 113 -175 173 -59 41
-56 22 5 -34z"/>
<path d="M1502 3433 c-123 -144 -207 -310 -227 -448 l-5 -40 17 35 c9 19 42
89 73 155 59 126 106 205 171 291 22 28 39 54 39 57 0 19 -23 1 -68 -50z"/>
<path d="M1788 3401 c-132 -100 -239 -258 -273 -403 -34 -146 -11 -144 38 5
51 157 93 223 215 345 57 56 99 102 94 102 -5 0 -38 -22 -74 -49z"/>
<path d="M1934 3381 c-53 -19 -114 -58 -114 -73 0 -12 5 -10 45 13 19 12 61
29 92 38 31 9 58 22 61 29 5 17 -24 14 -84 -7z"/>
<path d="M1267 3300 c-44 -79 -90 -199 -116 -302 -21 -80 -39 -238 -27 -227 4
4 25 75 46 158 22 84 63 211 90 283 28 73 49 137 47 142 -2 6 -20 -19 -40 -54z"/>
<path d="M4798 3293 c40 -53 74 -89 68 -69 -8 23 -46 70 -70 86 -17 11 -17 9
2 -17z"/>
<path d="M4920 3282 c0 -5 9 -17 20 -27 10 -9 45 -56 76 -103 32 -48 59 -81
62 -74 7 21 -39 101 -90 157 -47 52 -68 66 -68 47z"/>
<path d="M1713 3224 c-52 -80 -92 -174 -119 -280 -23 -89 -25 -113 -21 -234 3
-94 10 -149 22 -183 9 -26 19 -46 21 -44 2 2 -1 64 -8 137 -18 210 14 375 107
560 43 86 42 113 -2 44z"/>
<path d="M4610 3215 c1 -15 141 -188 147 -181 10 10 -45 91 -96 141 -28 27
-51 45 -51 40z"/>
<path d="M4740 3217 c0 -4 27 -44 60 -88 34 -45 72 -102 87 -126 34 -58 41
-48 10 14 -38 74 -157 226 -157 200z"/>
<path d="M5214 3094 c22 -86 28 -148 22 -231 -4 -51 -9 -99 -12 -108 -3 -8 -1
-15 5 -15 6 0 18 26 27 57 20 68 15 192 -11 265 -19 54 -42 78 -31 32z"/>
<path d="M4960 3107 c0 -4 9 -26 21 -48 45 -89 33 -244 -31 -400 -35 -83 -22
-82 20 2 73 143 78 311 15 414 -13 22 -25 36 -25 32z"/>
<path d="M5131 3063 c6 -15 13 -68 16 -118 6 -105 -11 -188 -56 -272 -36 -66
-24 -70 17 -5 41 63 65 152 65 237 0 68 -24 168 -44 180 -5 4 -4 -6 2 -22z"/>
<path d="M4630 3039 c0 -4 16 -32 35 -64 19 -32 36 -62 38 -69 8 -22 19 4 13
29 -6 24 -85 119 -86 104z"/>
<path d="M1376 2918 c-47 -153 -58 -302 -32 -429 17 -80 56 -173 67 -162 4 4
-2 53 -13 108 -30 140 -29 335 0 465 26 109 24 100 13 100 -5 0 -20 -37 -35
-82z"/>
<path d="M4848 2900 c4 -25 7 -88 6 -140 0 -85 -4 -104 -38 -189 -20 -51 -35
-95 -32 -98 2 -2 24 35 48 83 l43 87 -1 111 c0 80 -5 122 -17 151 l-17 40 8
-45z"/>
<path d="M4765 2788 c10 -83 -17 -203 -64 -298 -42 -83 -47 -116 -10 -70 37
46 77 142 89 212 13 73 6 193 -11 204 -6 3 -7 -16 -4 -48z"/>
<path d="M1477 2705 c-14 -88 38 -325 99 -453 20 -41 38 -71 41 -69 2 3 -16
68 -40 144 -30 91 -51 181 -62 263 -20 142 -29 170 -38 115z"/>
<path d="M4219 2037 c-69 -45 -172 -104 -227 -132 -96 -46 -136 -76 -74 -54
124 43 376 189 422 244 28 34 -1 20 -121 -58z"/>
<path d="M3980 2000 c-182 -99 -278 -137 -515 -204 -45 -12 -47 -14 -18 -15
47 -1 286 62 388 103 49 20 118 54 154 75 67 40 164 120 146 120 -5 0 -75 -35
-155 -79z"/>
<path d="M4175 1888 c-164 -89 -298 -151 -474 -218 -63 -24 -109 -46 -103 -48
31 -10 298 90 456 171 125 64 302 178 274 177 -2 0 -70 -37 -153 -82z"/>
<path d="M2125 1821 c-5 -10 107 -58 220 -95 102 -34 233 -58 287 -54 35 2 9
11 -150 51 -106 26 -229 61 -272 77 -44 15 -82 25 -85 21z"/>
<path d="M3663 1775 c-191 -57 -427 -100 -619 -112 -57 -3 -104 -10 -104 -15
0 -9 100 -6 290 8 93 7 320 48 420 76 41 11 100 33 130 49 50 25 52 28 25 28
-16 0 -80 -16 -142 -34z"/>
<path d="M2671 1740 c56 -34 385 -38 529 -6 65 14 65 14 -60 8 -159 -9 -196
-9 -355 1 -85 5 -124 4 -114 -3z"/>
<path d="M2292 1630 c37 -23 179 -51 315 -62 236 -20 710 16 824 61 36 14 13
13 -206 -11 -273 -30 -667 -32 -800 -4 -132 27 -154 29 -133 16z"/>
<path d="M3760 1607 c-105 -37 -392 -158 -387 -164 13 -12 507 174 507 191 0
11 -26 5 -120 -27z"/>
<path d="M1940 1594 c0 -9 120 -60 205 -88 133 -43 355 -73 355 -47 0 5 -51
16 -112 26 -118 18 -293 60 -390 94 -32 11 -58 18 -58 15z"/>
<path d="M1760 1555 c18 -22 146 -95 221 -126 64 -26 194 -59 234 -59 43 0 3
22 -102 55 -65 21 -173 62 -241 91 -68 29 -118 47 -112 39z"/>
<path d="M3122 1490 c-68 -10 -203 -23 -300 -29 -96 -6 -178 -14 -181 -17 -3
-4 86 -4 199 -1 210 6 380 25 460 51 l45 14 -50 0 c-27 0 -106 -9 -173 -18z"/>
<path d="M2395 1350 c136 -29 341 -41 470 -30 215 19 327 56 130 43 -146 -10
-466 -10 -595 -1 l-95 6 90 -18z"/>
</g>
</svg>
