<?xml version="1.0" standalone="no"?>
<!DOCTYPE svg PUBLIC "-//W3C//DTD SVG 20010904//EN"
 "http://www.w3.org/TR/2001/REC-SVG-20010904/DTD/svg10.dtd">
<svg version="1.0" xmlns="http://www.w3.org/2000/svg"
 width="259.000000pt" height="550.000000pt" viewBox="0 0 259.000000 550.000000"
 preserveAspectRatio="xMidYMid meet">

<g transform="translate(0.000000,550.000000) scale(0.100000,-0.100000)"
fill="#be8343" stroke="none">
<path d="M1454 5414 c-62 -30 -102 -72 -109 -113 -11 -64 -27 -69 -88 -31 -60
37 -88 40 -125 13 -43 -32 -66 -81 -67 -140 0 -76 27 -101 126 -114 105 -15
102 -12 73 -63 -19 -34 -23 -50 -15 -63 6 -13 6 -33 -2 -62 -11 -41 -10 -45
11 -59 12 -8 22 -25 22 -37 0 -16 8 -25 25 -29 30 -8 31 -17 7 -39 -16 -15
-89 -35 -123 -34 -46 1 -151 -121 -206 -243 -26 -56 -52 -93 -106 -147 l-71
-73 -7 -75 c-3 -41 -8 -78 -11 -81 -9 -9 -80 31 -107 60 -25 26 -25 27 -9 74
24 68 34 212 17 223 -22 14 -23 13 -73 -60 -26 -38 -62 -81 -80 -94 l-33 -25
-16 28 c-9 15 -33 35 -53 45 -67 32 -134 -2 -155 -77 -5 -21 -14 -36 -18 -34
-4 3 -20 39 -36 81 -27 75 -60 115 -95 115 -10 0 -20 -10 -24 -22 -11 -45 -6
-159 10 -196 30 -70 9 -139 -85 -289 -28 -43 -31 -54 -21 -73 6 -11 9 -34 5
-49 -5 -23 -2 -29 14 -34 23 -6 41 -61 41 -127 0 -27 9 -61 21 -85 19 -34 20
-48 14 -110 -4 -38 -8 -110 -10 -160 -1 -56 -9 -105 -19 -129 -9 -21 -16 -46
-16 -55 0 -10 24 -46 53 -82 29 -35 53 -66 54 -69 3 -45 21 -55 128 -77 l40
-9 3 -57 c2 -40 -3 -70 -17 -101 -13 -30 -18 -57 -14 -84 4 -27 1 -43 -11 -54
-9 -9 -16 -24 -16 -32 0 -8 -16 -30 -36 -48 -115 -105 -148 -152 -173 -246 -7
-23 -23 -59 -36 -79 -29 -41 -36 -133 -11 -133 7 0 43 -20 78 -44 36 -24 84
-49 107 -56 37 -10 45 -9 67 9 15 11 57 31 95 43 38 12 70 28 70 35 1 7 2 26
3 42 1 30 12 49 21 39 3 -3 21 -41 39 -84 22 -53 31 -86 26 -99 -5 -13 -2 -26
8 -38 10 -11 18 -47 22 -95 4 -42 19 -119 34 -171 23 -75 27 -105 22 -149 -4
-30 -3 -115 0 -189 7 -124 9 -138 31 -161 22 -24 24 -34 22 -117 0 -49 2 -102
6 -118 9 -34 -12 -182 -31 -219 -8 -16 -13 -52 -12 -90 2 -72 -15 -112 -62
-152 -29 -24 -46 -50 -102 -156 -28 -53 -24 -79 15 -94 61 -26 94 -28 132 -10
20 9 50 20 68 23 18 4 32 13 32 21 0 25 -54 23 -115 -4 -46 -21 -63 -24 -84
-16 -14 5 -26 13 -26 18 0 26 56 142 82 169 26 27 34 30 55 22 13 -5 26 -9 27
-9 6 0 46 99 46 114 0 9 -6 13 -14 10 -10 -4 -12 6 -9 48 3 39 2 49 -6 38 -9
-12 -11 -11 -11 9 0 16 4 21 14 18 10 -4 16 2 19 16 3 13 5 7 6 -15 0 -20 6
-40 11 -43 14 -8 13 111 -1 136 -6 12 -8 28 -4 36 5 14 7 14 20 -3 8 -10 15
-29 15 -41 0 -12 11 -34 25 -49 14 -15 25 -39 25 -55 0 -29 -22 -59 -44 -59
-23 0 -36 -133 -16 -169 6 -13 4 -31 -7 -60 -15 -37 -15 -44 -1 -57 13 -13 16
-13 29 2 10 13 13 40 11 105 l-3 87 34 35 34 34 -3 279 c-1 186 1 296 9 329
17 72 12 199 -9 261 -17 51 -17 57 1 173 16 104 17 136 7 239 -8 91 -8 132 1
169 14 58 32 64 76 27 55 -46 73 -95 83 -229 5 -66 16 -150 25 -187 11 -50 12
-75 5 -100 -31 -101 -33 -251 -5 -329 46 -122 56 -279 28 -431 -16 -92 -16
-101 -1 -148 20 -62 8 -114 -35 -156 -16 -15 -29 -33 -29 -40 0 -6 -13 -52
-30 -102 -16 -50 -30 -104 -30 -120 0 -34 41 -78 64 -69 22 9 20 20 -8 46 -22
21 -23 25 -10 49 8 15 14 39 14 53 0 15 9 38 21 53 23 30 68 34 109 11 33 -19
40 -18 40 4 0 33 -23 42 -86 35 l-58 -7 47 66 c26 36 47 71 47 78 0 10 3 10
12 1 7 -7 20 -12 30 -12 15 0 18 -9 18 -61 0 -66 12 -99 37 -99 12 0 14 6 8
28 -19 78 -18 91 19 168 41 86 46 136 17 186 -14 24 -20 62 -25 138 -3 58 -9
143 -12 190 -5 67 -3 93 10 124 19 46 22 180 5 254 -10 40 -9 70 4 153 9 57
24 187 34 288 l18 184 44 20 c46 20 61 14 61 -26 0 -26 25 -71 73 -132 23 -30
55 -72 70 -95 15 -23 41 -49 57 -58 37 -21 50 -51 50 -112 0 -40 6 -56 35 -92
48 -60 63 -88 80 -155 20 -75 19 -216 -2 -268 -20 -52 -26 -106 -14 -125 19
-28 32 4 41 101 13 131 20 168 32 175 7 4 6 9 -1 13 -6 4 -18 47 -27 96 -17
100 -23 113 -70 172 -19 23 -37 57 -40 75 -5 31 -4 32 10 14 8 -10 17 -24 20
-30 6 -15 27 15 21 32 -2 6 0 12 5 12 13 0 40 -54 40 -79 0 -17 3 -18 25 -8
13 7 26 19 28 27 2 8 9 -4 17 -27 16 -52 9 -74 -21 -66 -19 5 -21 3 -14 -13 5
-10 10 -39 11 -63 1 -31 6 -47 17 -50 12 -4 14 -10 7 -21 -12 -18 -13 -80 -2
-80 11 0 33 86 26 104 -3 8 -12 17 -21 20 -12 5 -13 9 -3 21 28 34 40 17 40
-53 0 -88 -25 -184 -89 -345 -55 -137 -58 -152 -36 -181 10 -13 11 -25 4 -43
-12 -32 -12 -290 0 -298 14 -8 20 7 25 65 2 29 9 56 16 60 9 6 8 14 -3 36 -25
49 -29 87 -13 109 14 19 15 17 16 -22 0 -74 18 -47 22 35 3 42 3 79 2 81 -2 2
-10 -1 -17 -7 -35 -29 -36 29 -1 134 14 44 30 84 36 89 7 7 8 3 3 -14 -9 -30
4 -176 15 -165 5 5 10 34 13 64 10 124 54 286 74 267 2 -3 -5 -53 -18 -112
-17 -86 -19 -115 -11 -143 13 -41 2 -72 -50 -140 -35 -47 -40 -86 -17 -137
l13 -30 4 42 c3 42 23 70 42 58 15 -10 12 -30 -11 -70 -25 -41 -16 -61 11 -28
19 24 40 30 40 13 0 -5 -11 -43 -24 -84 -21 -67 -30 -80 -90 -136 -37 -35 -65
-65 -63 -67 3 -2 28 5 56 17 28 11 64 20 79 21 l27 1 -25 7 c-21 6 -22 8 -8
13 31 12 61 88 66 166 3 40 0 83 -5 95 -6 12 -15 43 -21 69 -9 38 -9 52 5 78
13 28 14 41 3 105 -11 63 -10 79 4 121 9 26 16 60 16 76 0 16 7 45 16 66 8 20
22 66 30 102 9 36 22 72 29 80 8 9 21 62 29 119 9 57 20 109 26 116 7 9 3 26
-15 58 l-26 45 31 102 c16 57 30 120 30 140 0 44 8 70 21 70 5 0 9 -10 9 -23
0 -41 30 -139 51 -169 27 -38 34 -30 15 17 -9 21 -16 46 -16 57 0 11 -6 25
-13 33 -17 16 -30 156 -17 169 6 6 10 27 10 47 0 21 5 41 10 44 17 10 23 -24
12 -63 -12 -41 -4 -165 9 -156 13 8 29 -41 39 -124 5 -40 14 -81 20 -90 7 -12
8 -8 3 18 -6 31 -5 34 10 22 8 -7 19 -26 22 -42 4 -16 29 -64 57 -106 66 -101
100 -177 106 -239 3 -27 9 -53 15 -56 5 -4 13 -24 17 -45 l7 -39 13 28 c12 23
10 38 -10 115 -12 48 -22 101 -21 119 1 34 -72 219 -96 243 -12 12 -12 9 2
-18 9 -18 15 -43 13 -55 -4 -20 -6 -19 -24 12 -10 18 -29 46 -41 61 -24 29
-31 70 -13 70 6 0 10 -11 10 -24 0 -14 5 -28 10 -31 15 -9 25 24 11 38 -6 6
-11 17 -11 24 0 24 21 14 38 -19 9 -17 38 -55 64 -84 59 -67 60 -68 98 -199
31 -109 50 -149 50 -108 0 28 -45 182 -77 263 -15 37 -42 82 -64 105 -22 24
-47 63 -58 95 -10 30 -23 54 -28 53 -16 -3 -45 277 -33 317 7 20 8 65 5 107
-5 52 -2 87 10 131 15 52 16 81 7 237 l-11 177 -55 82 c-31 44 -56 86 -56 92
0 6 -9 19 -21 30 -12 10 -38 53 -60 95 l-38 76 -93 49 c-119 62 -192 89 -184
69 4 -11 -2 -15 -20 -15 -20 0 -25 4 -20 16 25 65 27 99 6 139 -11 21 -20 56
-20 76 0 34 3 38 49 58 27 11 60 21 72 21 23 0 71 32 127 83 31 30 32 33 32
111 0 45 -5 99 -11 121 -6 22 -15 71 -20 109 -5 38 -23 101 -39 140 -21 52
-29 93 -32 152 -4 66 -10 90 -32 127 -26 46 -95 97 -129 97 -8 0 -25 14 -37
30 -12 17 -43 41 -69 54 -69 35 -77 49 -53 83 10 15 34 61 52 101 19 40 41 77
49 81 9 5 38 12 65 16 67 9 93 23 106 55 8 20 8 33 -1 53 -13 29 -44 45 -149
80 l-65 22 -3 48 c-3 44 -8 53 -78 122 -80 81 -101 89 -160 59z m120 -67 l27
-53 -20 -52 c-12 -29 -21 -67 -21 -84 0 -18 -7 -36 -17 -44 -17 -13 -17 -13 2
-14 32 0 62 58 70 134 6 58 9 65 22 54 12 -10 14 -26 10 -76 -6 -62 3 -102 23
-102 6 0 10 9 10 20 0 22 4 22 107 -6 70 -19 120 -82 77 -98 -9 -3 -66 -6
-127 -6 -88 0 -114 3 -128 16 -15 14 -55 17 -239 22 l-221 5 -25 30 c-21 25
-24 37 -19 66 9 48 50 101 79 101 12 0 31 -6 41 -14 17 -12 18 -17 7 -40 -23
-50 -17 -59 32 -53 39 6 46 4 61 -19 12 -18 22 -23 36 -19 11 4 36 -1 55 -10
19 -9 45 -15 57 -13 22 3 22 3 -3 20 -14 10 -50 23 -80 31 -30 8 -55 18 -57
24 -2 5 10 39 27 74 16 35 30 69 31 74 0 15 111 84 135 85 16 0 29 -14 48 -53z
m-121 -378 c-9 -9 -12 -7 -10 9 1 14 5 18 11 12 7 -7 6 -14 -1 -21z m-98 1
c23 -11 79 -26 123 -32 75 -11 82 -14 82 -34 0 -17 -7 -23 -27 -26 -33 -4 -38
-34 -10 -52 15 -9 21 -6 37 14 l20 25 0 -88 c0 -131 -36 -193 -118 -204 -38
-5 -41 -4 -66 39 -14 25 -26 55 -26 67 0 20 4 22 25 17 18 -5 25 -2 25 8 0 22
-22 34 -69 38 -51 4 -59 16 -32 49 18 23 20 23 38 6 21 -18 43 -23 43 -8 0 5
-20 35 -45 67 -25 31 -45 61 -45 66 0 4 -7 8 -15 8 -18 0 -19 14 -5 41 13 24
14 24 65 -1z m249 -15 c4 -13 2 -14 -14 -5 -23 13 -26 20 -6 20 8 0 16 -7 20
-15z m141 -356 c5 -14 2 -25 -6 -30 -19 -11 -29 2 -23 29 8 28 21 28 29 1z
m-445 7 c0 -2 -6 -19 -14 -37 -11 -27 -16 -30 -21 -17 -7 18 10 58 25 58 6 0
10 -2 10 -4z m-122 -32 c-7 -15 -14 -21 -16 -15 -5 16 5 41 17 41 7 0 6 -10
-1 -26z m654 -24 c53 -15 57 -48 18 -131 -16 -35 -30 -74 -30 -86 0 -12 -4
-25 -10 -28 -13 -8 -13 39 0 86 6 20 21 53 35 73 32 47 32 56 0 26 -14 -13
-33 -49 -42 -80 -8 -30 -20 -61 -27 -69 -6 -8 -10 -22 -8 -32 2 -9 -2 -20 -8
-24 -20 -13 -21 24 -1 86 15 50 17 66 7 73 -9 7 -10 18 -2 47 10 40 23 48 44
27 6 -6 15 -8 19 -3 5 4 3 10 -3 12 -19 7 -50 32 -39 33 6 0 27 -5 47 -10z
m-288 -19 c10 -10 13 -22 8 -25 -12 -7 -54 23 -47 35 9 14 20 11 39 -10z
m-154 -31 c0 -18 -22 -22 -37 -7 -21 21 -8 40 18 27 10 -6 19 -15 19 -20z
m234 15 c-4 -8 -10 -15 -15 -15 -5 0 -21 -26 -35 -57 -15 -32 -28 -52 -31 -45
-9 23 6 61 38 97 32 36 53 46 43 20z m-314 -25 c0 -16 5 -30 10 -30 6 0 10 -4
10 -10 0 -14 -28 -12 -32 2 -3 7 -18 -18 -36 -55 -17 -37 -34 -67 -38 -67 -3
0 -4 7 0 15 6 18 -5 20 -22 3 -6 -6 -14 -9 -18 -6 -9 9 14 74 32 88 12 11 14
7 15 -21 0 -38 -5 -46 43 64 24 54 36 60 36 17z m-238 -55 c3 -24 0 -35 -9
-35 -13 0 -19 51 -6 63 10 11 11 9 15 -28z m834 20 c-3 -8 1 -18 10 -23 16 -9
9 -72 -9 -72 -6 0 -19 -7 -29 -17 -15 -13 -18 -13 -18 -2 0 8 7 25 16 37 10
15 14 32 10 48 -7 27 -1 44 16 44 5 0 8 -7 4 -15z m-790 -32 c-10 -10 -19 5
-10 18 6 11 8 11 12 0 2 -7 1 -15 -2 -18z m55 -6 c-8 -8 -11 -7 -11 4 0 20 13
34 18 19 3 -7 -1 -17 -7 -23z m413 -76 c-30 -47 -35 -48 -51 -21 -15 23 1 38
22 20 12 -10 17 -1 32 50 17 58 18 59 21 26 2 -25 -5 -46 -24 -75z m-78 52
c-10 -26 -18 -8 -9 23 5 21 8 24 11 11 2 -10 1 -25 -2 -34z m228 21 c3 -9 6
-27 6 -41 0 -21 -2 -24 -15 -13 -8 7 -15 25 -15 41 0 31 14 39 24 13z m-76
-84 c-4 -83 1 -109 16 -77 4 6 4 -46 1 -118 -3 -74 -9 -131 -15 -133 -5 -2
-10 -18 -10 -35 0 -24 -3 -28 -10 -17 -14 22 -12 82 6 177 14 75 14 85 0 99
-26 26 -17 194 10 194 4 0 5 -40 2 -90z m-333 9 c-18 -39 -13 -88 5 -59 8 12
10 10 10 -8 0 -34 -33 -152 -42 -152 -4 0 -8 5 -8 11 0 5 -4 7 -10 4 -5 -3
-10 -27 -10 -53 -1 -58 -14 -130 -27 -143 -5 -5 -8 18 -6 59 5 99 12 130 32
150 18 17 46 110 36 120 -7 7 -6 8 -39 -68 -40 -93 -41 -93 -57 -97 -8 -3 -7
0 4 7 9 6 17 21 17 33 0 12 9 46 20 75 11 28 15 52 10 52 -6 0 -10 -7 -10 -15
0 -8 -4 -15 -10 -15 -16 0 -12 26 13 73 13 24 27 55 30 68 3 13 9 21 12 17 3
-3 -3 -28 -14 -56 -11 -28 -17 -53 -13 -56 7 -4 30 41 57 109 8 19 8 19 13 1
2 -10 -4 -36 -13 -57z m-295 40 c0 -11 -4 -18 -10 -14 -5 3 -7 12 -3 20 7 21
13 19 13 -6z m404 -61 c-13 -25 -13 -29 1 -34 18 -7 20 -76 4 -144 -6 -25 -12
-65 -14 -90 -4 -55 -30 -199 -40 -222 -11 -27 -23 -21 -17 8 3 19 1 25 -7 20
-6 -4 -11 -18 -11 -32 0 -13 -5 -24 -11 -24 -12 0 -9 30 10 115 8 35 9 36 10
11 2 -57 12 -17 31 132 11 84 25 164 30 178 6 15 8 29 6 32 -6 5 -26 -43 -26
-62 0 -7 -7 -21 -15 -32 -14 -17 -15 -14 -9 41 6 60 25 117 46 142 19 23 29
-7 12 -39z m-364 -8 c0 -20 5 -30 15 -30 8 0 15 5 15 11 0 5 5 7 10 4 13 -8
13 -65 0 -65 -5 0 -7 7 -4 15 4 10 0 15 -16 15 -18 0 -20 -4 -15 -22 6 -18 5
-21 -5 -11 -17 16 -26 113 -11 113 6 0 11 -13 11 -30z m621 -27 c-9 -16 -10
-16 -11 4 0 12 3 30 7 40 7 16 8 16 11 -4 2 -12 -1 -30 -7 -40z m-677 19 c20
-40 31 -102 17 -102 -6 0 -11 7 -11 15 0 8 -4 15 -8 15 -5 0 -9 6 -10 13 0 6
-4 29 -8 50 -8 44 0 48 20 9z m-844 -14 c0 -25 18 -57 44 -81 l21 -18 -27 4
c-33 5 -33 6 -7 -44 11 -23 19 -42 17 -44 -10 -8 -50 -26 -53 -23 -2 2 -11 34
-19 71 -16 69 -21 149 -10 160 11 11 34 -5 34 -25z m476 -37 c-9 -16 -16 -38
-16 -47 0 -9 -16 -34 -35 -55 -19 -22 -35 -45 -35 -52 0 -16 36 -47 55 -47 8
0 15 -5 15 -10 0 -6 12 -23 26 -37 19 -19 23 -28 13 -34 -10 -6 -10 -11 1 -24
8 -9 14 -29 15 -43 0 -14 6 -27 14 -30 10 -3 12 0 8 11 -3 9 -2 19 3 22 9 5
13 -8 13 -40 0 -5 -3 -27 -6 -48 -5 -34 -4 -37 9 -26 14 12 15 5 12 -59 -3
-79 4 -93 20 -34 9 31 10 23 6 -48 l-4 -85 14 70 c8 39 17 83 21 99 7 25 5 28
-8 23 -14 -5 -17 0 -15 26 0 18 -2 67 -7 110 -7 67 -6 77 8 77 20 0 45 -48 39
-74 -5 -25 18 -107 29 -100 5 3 9 17 9 32 l1 27 14 -25 c9 -17 14 -56 15 -118
0 -66 5 -103 17 -130 l17 -37 6 70 5 70 18 -27 c10 -15 15 -32 11 -39 -10 -16
-11 -187 -2 -202 10 -15 28 9 28 36 0 9 5 17 11 17 8 0 10 -17 6 -55 -3 -30
-2 -57 3 -60 5 -3 10 14 12 37 2 34 7 43 21 42 14 -2 17 6 17 41 0 45 24 86
63 107 30 16 137 18 137 2 0 -19 -46 -44 -80 -44 -48 0 -90 -47 -90 -100 0
-33 -3 -41 -15 -36 -16 6 -32 -34 -21 -52 10 -17 -176 -186 -274 -249 -52 -34
-104 -70 -115 -80 -11 -10 -40 -21 -65 -25 -94 -14 -113 -21 -117 -39 -3 -11
-9 -19 -14 -19 -17 0 -9 37 11 55 15 14 17 21 9 31 -6 8 -8 22 -5 31 17 43 83
143 98 148 9 3 17 14 16 23 0 9 3 27 7 40 10 32 -8 27 -28 -8 -10 -16 -22 -30
-28 -30 -23 0 -5 44 41 101 28 34 50 69 50 78 1 13 3 12 15 -3 17 -23 19 -66
5 -116 -11 -42 0 -132 18 -138 6 -2 12 3 12 11 0 8 10 30 23 49 18 26 21 38
13 50 -7 12 -6 26 7 52 20 42 5 59 -17 19 -22 -41 -19 -19 5 34 16 35 18 51
10 67 -5 12 -9 57 -9 101 1 55 -3 89 -14 110 -19 37 -38 178 -26 199 5 8 4 17
-2 21 -5 3 -10 20 -10 36 0 25 -5 30 -30 36 -35 7 -44 17 -35 41 5 14 7 14 15
2 5 -8 12 -11 16 -7 12 12 -12 29 -43 31 -16 2 -40 10 -53 19 -14 8 -38 19
-53 23 -23 5 -29 3 -34 -15 l-5 -21 -25 20 c-53 42 -123 46 -216 14 -35 -12
-37 -12 -28 5 6 10 34 28 63 41 63 27 88 47 88 72 0 10 4 18 10 18 5 0 7 -7 4
-15 -4 -9 0 -15 10 -15 9 0 16 5 16 11 0 5 5 7 10 4 19 -12 11 -45 -10 -45
-11 0 -20 -4 -20 -10 0 -5 16 -10 35 -10 24 0 35 5 35 15 0 19 11 19 54 -1 45
-22 70 -13 62 22 -6 23 2 36 59 94 36 38 66 74 66 82 1 7 4 3 6 -9 2 -12 -3
-35 -11 -52z m816 47 c-7 -7 -12 -8 -12 -2 0 14 12 26 19 19 2 -3 -1 -11 -7
-17z m448 6 c0 -8 -7 -22 -15 -30 -8 -9 -15 -26 -15 -40 0 -13 -4 -24 -10 -24
-14 0 -12 19 8 67 17 44 32 56 32 27z m-301 -119 c-10 -137 -17 -175 -30 -175
-7 0 -9 30 -6 88 5 95 28 216 38 204 4 -4 3 -56 -2 -117z m-628 73 c23 -61 27
-76 19 -88 -6 -10 -14 -9 -36 1 -33 16 -54 63 -37 80 9 9 15 3 26 -23 17 -39
44 -65 35 -32 -3 10 -13 36 -22 57 -9 20 -12 37 -7 37 5 0 15 -15 22 -32z
m229 17 c0 -8 -8 -30 -17 -50 -15 -30 -15 -39 -4 -57 11 -18 11 -20 -4 -14 -9
3 -21 6 -27 6 -6 0 -8 14 -3 38 11 59 55 121 55 77z m296 -9 c4 -17 -1 -31
-16 -46 -15 -15 -19 -25 -12 -32 21 -21 -6 -319 -29 -334 -14 -8 -10 66 7 157
10 53 14 106 10 143 -7 73 2 136 20 136 8 0 16 -11 20 -24z m220 -40 c-7 -77
-18 -126 -27 -132 -12 -7 -11 14 3 112 13 89 33 106 24 20z m225 -4 c11 -13
10 -16 -19 -74 -2 -3 7 -4 18 -1 21 6 39 -9 40 -32 0 -5 -21 -10 -47 -10 -27
0 -58 -4 -69 -8 -15 -5 -23 -3 -27 7 -4 10 0 12 14 9 21 -6 25 7 8 24 -6 6 -9
19 -6 29 4 16 5 15 6 -3 1 -31 36 -30 57 2 17 27 10 50 -13 41 -11 -5 -13 -2
-9 10 3 8 6 25 6 37 1 22 1 22 15 2 8 -11 20 -26 26 -33z m-384 16 c-3 -8 -6
-5 -6 6 -1 11 2 17 5 13 3 -3 4 -12 1 -19z m-1147 2 c11 0 20 -39 10 -45 -4
-3 -10 4 -13 15 -3 12 -14 20 -27 20 -12 0 -18 4 -15 11 4 6 14 8 22 5 8 -3
18 -6 23 -6z m1123 -45 c-3 -9 0 -22 7 -30 22 -27 -7 -295 -32 -295 -5 0 -7
21 -4 53 3 28 8 86 11 127 3 41 9 83 12 94 3 12 1 16 -6 12 -6 -4 -11 -20 -11
-36 0 -16 -4 -32 -10 -35 -6 -3 -8 18 -5 56 2 35 9 65 16 70 18 10 29 2 22
-16z m-629 -7 c24 -34 19 -44 -9 -18 -14 13 -25 27 -25 32 0 16 19 8 34 -14z
m717 -31 c-13 -13 -15 1 -4 30 7 17 8 17 11 -1 2 -10 -1 -23 -7 -29z m183 21
c20 -28 21 -48 1 -22 -13 18 -14 18 -15 1 0 -28 -20 -9 -20 19 0 30 14 31 34
2z m-68 -15 c-10 -10 -19 5 -10 18 6 11 8 11 12 0 2 -7 1 -15 -2 -18z m-858
-23 c-3 -9 -9 -8 -21 4 -9 10 -14 22 -11 28 8 13 38 -16 32 -32z m462 -23 c0
-67 -29 -270 -40 -281 -15 -15 -12 79 5 209 8 61 15 111 15 113 0 1 5 2 10 2
6 0 10 -19 10 -43z m-220 -17 c0 -22 -4 -40 -10 -40 -11 0 -14 63 -3 73 11 12
13 8 13 -33z m-236 20 c14 -5 26 -13 26 -18 0 -13 -73 1 -78 16 -4 14 17 16
52 2z m271 -40 c-4 -12 -9 -19 -12 -17 -3 3 -2 15 2 27 4 12 9 19 12 17 3 -3
2 -15 -2 -27z m577 0 c6 0 3 -9 -7 -20 -10 -11 -21 -20 -26 -20 -7 0 -3 30 8
60 5 12 7 12 10 -2 3 -10 9 -18 15 -18z m248 -10 c12 -22 7 -25 -20 -10 -11 6
-28 6 -42 1 l-23 -8 23 -7 c12 -4 22 -15 22 -26 0 -10 7 -20 15 -24 8 -3 15
-15 15 -26 0 -12 10 -25 25 -32 31 -14 36 -53 5 -43 -23 7 -25 -3 -6 -30 19
-28 29 -65 18 -65 -13 0 -64 79 -57 89 2 5 -2 14 -10 21 -9 7 -13 21 -10 30 7
22 -5 26 -78 25 l-59 0 -13 -38 c-12 -35 -11 -37 5 -32 9 3 23 -1 30 -10 7 -8
21 -15 31 -15 11 0 19 -7 19 -15 0 -8 -6 -12 -14 -9 -11 4 -10 -7 4 -60 10
-35 16 -67 12 -70 -13 -13 -32 -5 -32 15 0 32 -21 109 -30 109 -5 0 -2 -28 6
-62 8 -34 12 -68 10 -75 -8 -21 -36 -15 -36 7 0 11 -6 20 -14 20 -7 0 -21 20
-30 45 -10 25 -26 47 -37 50 -19 6 -27 35 -10 35 5 0 16 3 24 6 11 4 23 -10
41 -48 24 -49 26 -51 26 -22 0 20 -9 39 -24 53 -24 23 -25 24 -9 63 13 32 14
45 5 59 -23 36 -11 64 16 37 6 -6 15 -8 19 -4 4 4 1 11 -6 15 -9 6 -10 11 -3
15 6 4 19 -2 29 -13 10 -11 31 -23 47 -27 25 -6 28 -5 23 10 -4 10 -7 22 -7
27 0 5 -12 9 -27 9 l-28 1 30 24 c39 32 109 35 125 5z m-910 -108 c-13 -74
-28 -88 -41 -40 -8 32 15 138 33 149 19 13 22 -24 8 -109z m-83 76 c19 -15 16
-42 -8 -72 -26 -33 -44 -33 -45 0 -2 22 1 25 22 20 19 -5 24 -3 24 14 0 13 -7
20 -20 20 -11 0 -20 7 -20 15 0 8 -4 15 -10 15 -5 0 -10 4 -10 10 0 11 46 -4
67 -22z m-649 -12 c3 -14 0 -17 -12 -13 -8 3 -18 2 -21 -3 -9 -14 -25 -12 -25
3 0 36 52 48 58 13z m936 -133 c-3 -82 -7 -158 -10 -170 -6 -29 -24 -30 -24
-3 0 14 -6 20 -17 18 -14 -2 -19 5 -21 35 -2 25 1 37 10 37 9 0 21 39 38 115
13 63 25 115 27 115 2 0 1 -66 -3 -147z m-1034 119 c0 -10 -13 -33 -30 -52
-23 -28 -29 -45 -30 -83 0 -28 -9 -65 -21 -89 -22 -42 -22 -46 -3 -178 4 -22
0 -42 -10 -55 -13 -18 -16 -18 -30 -5 -8 8 -18 28 -22 44 -6 24 -4 28 9 23 29
-11 30 13 2 55 -26 39 -27 45 -18 95 10 54 5 65 -17 38 -16 -19 -26 -19 -34 0
-3 8 9 29 29 50 18 20 37 49 40 65 9 39 42 80 79 96 42 18 56 17 56 -4z m589
-6 c9 -11 9 -16 0 -21 -10 -7 -28 10 -29 28 0 12 17 8 29 -7z m294 -25 c-1
-22 -9 -53 -17 -70 -9 -16 -16 -44 -16 -61 0 -17 -4 -29 -9 -26 -11 7 -2 90
10 94 5 2 11 26 15 53 8 58 21 66 17 10z m562 -10 c-4 -17 -10 -31 -15 -31
-12 0 -20 29 -10 35 6 4 10 16 10 28 0 15 3 18 11 10 7 -7 8 -24 4 -42z
m-1305 20 c0 -6 -4 -13 -10 -16 -5 -3 -10 1 -10 9 0 9 5 16 10 16 6 0 10 -4
10 -9z m150 -13 c24 -17 30 -29 30 -60 0 -36 1 -37 25 -26 14 6 27 9 30 7 2
-3 -2 -27 -10 -54 -7 -28 -19 -83 -25 -123 -10 -63 -15 -75 -36 -82 -13 -5
-37 -19 -52 -30 -17 -12 -35 -18 -45 -14 -19 7 -23 39 -6 49 6 5 4 12 -8 21
-17 12 -16 13 6 14 39 0 113 40 107 57 -3 8 1 30 9 50 17 39 20 87 6 78 -5 -3
-12 4 -16 15 -3 11 -11 20 -16 20 -14 0 -11 -11 8 -32 15 -17 15 -20 3 -28
-23 -15 -35 -6 -40 30 -4 29 -7 31 -18 17 -18 -21 -6 -55 24 -69 13 -6 24 -19
24 -30 0 -19 -15 -24 -25 -8 -13 20 -59 10 -81 -17 -32 -41 -41 -20 -15 33 25
52 19 71 -10 35 -30 -37 -34 -70 -15 -121 9 -25 23 -72 30 -104 7 -33 21 -65
31 -72 16 -12 16 -16 1 -67 -18 -63 -21 -107 -6 -107 6 0 10 8 11 18 0 9 3 12
5 6 3 -7 -5 -67 -16 -135 -15 -89 -27 -130 -41 -145 -11 -12 -27 -46 -34 -75
-19 -71 -18 -79 5 -49 14 19 22 22 31 13 31 -31 -70 -171 -115 -157 -63 19
-88 36 -99 63 -6 16 -21 35 -34 42 -13 7 -23 17 -23 24 0 6 -9 27 -19 48 -14
27 -15 37 -6 37 7 0 16 7 19 16 10 25 7 102 -4 109 -15 9 -12 62 10 144 11 41
20 91 20 110 0 20 7 61 15 91 19 69 19 143 1 178 -10 20 -11 33 -3 52 l11 25
4 -27 c2 -16 7 -28 12 -28 11 0 30 57 30 91 0 57 43 110 58 71 8 -20 6 -80 -3
-138 -4 -25 -2 -50 4 -63 9 -16 4 -42 -25 -133 -26 -80 -39 -141 -44 -208 -4
-52 -15 -121 -24 -153 -21 -70 -18 -107 6 -62 20 38 59 233 52 260 -3 12 8 63
25 115 40 128 43 150 33 198 -8 35 -6 52 15 104 14 35 32 70 39 79 8 8 14 25
14 37 0 28 20 39 35 19 10 -14 17 -15 43 -5 25 10 32 18 32 40 0 34 11 35 50
6z m199 3 c6 -10 8 -21 4 -24 -9 -10 -43 12 -43 28 0 21 27 18 39 -4z m1014
-1 c7 -26 -6 -73 -21 -78 -13 -4 -16 37 -6 76 8 27 20 29 27 2z m-139 -6 c11
-29 6 -90 -9 -110 -13 -17 -14 -12 -15 54 0 68 10 92 24 56z m-1345 -16 c-23
-45 -59 -74 -59 -49 0 13 50 71 61 71 6 0 5 -10 -2 -22z m71 -11 c0 -10 5 -15
10 -12 20 12 9 -14 -12 -29 -28 -20 -38 -12 -38 29 0 28 4 33 20 32 12 -1 20
-8 20 -20z m570 3 c23 -18 24 -20 5 -20 -21 0 -45 17 -45 32 0 13 13 9 40 -12z
m-40 -30 c0 -11 10 -20 26 -24 29 -8 27 -30 -3 -34 -16 -2 -23 5 -32 29 -14
40 -14 62 -1 54 6 -3 10 -14 10 -25z m1034 4 c9 -3 16 -14 16 -25 0 -10 9 -23
19 -29 11 -5 29 -26 41 -45 20 -33 21 -37 7 -59 -15 -22 -73 -53 -83 -44 -9
10 -9 107 1 108 6 1 12 -7 13 -17 7 -32 22 -39 22 -9 0 21 -13 41 -45 74 -25
24 -45 46 -45 48 0 6 37 5 54 -2z m-727 -66 c-1 -29 2 -64 6 -78 l8 -25 -24
27 c-18 19 -28 23 -35 16 -16 -16 -27 16 -13 39 10 17 10 17 11 0 0 -37 25 -9
28 31 5 61 22 51 19 -10z m28 -25 c-3 -18 -10 -31 -16 -27 -6 4 -6 11 1 19 7
8 9 19 6 24 -4 6 -3 23 1 38 7 27 8 27 11 4 2 -13 1 -39 -3 -58z m367 47 c-8
-49 -21 -68 -51 -75 -22 -5 -31 -13 -31 -26 0 -10 -4 -19 -10 -19 -18 0 -22
48 -7 97 l15 48 2 -50 c1 -27 4 -44 7 -37 2 6 9 10 13 7 11 -6 40 46 40 70 0
9 6 15 13 12 6 -2 10 -14 9 -27z m-552 -3 c0 -8 11 -24 25 -37 37 -35 34 -78
-9 -119 -19 -18 -36 -28 -40 -23 -3 5 1 15 9 22 19 16 19 30 1 30 -17 0 -26
-22 -26 -61 0 -34 12 -36 51 -8 16 11 36 19 43 16 15 -6 29 -47 15 -47 -4 0
-13 -17 -19 -38 -10 -40 -52 -88 -68 -78 -5 3 -12 26 -14 50 -4 30 -19 65 -47
108 -24 34 -38 64 -32 66 6 2 11 19 11 38 0 40 39 88 64 78 9 -3 16 -1 16 5 0
6 5 11 10 11 6 0 10 -6 10 -13z m410 -58 c0 -38 -16 -69 -35 -69 -19 0 -19 33
0 70 20 39 35 38 35 -1z m246 -15 c8 -19 19 -34 25 -34 7 0 9 -11 6 -29 -4
-17 -2 -31 4 -33 7 -2 7 -12 -1 -30 -11 -23 -19 -26 -71 -30 -44 -3 -80 -15
-141 -46 -54 -28 -85 -38 -93 -32 -7 6 -24 1 -50 -17 -34 -23 -36 -27 -22 -38
14 -10 15 -17 6 -44 -7 -19 -8 -46 -3 -69 l7 -37 8 30 c6 28 7 29 14 8 7 -22
8 -22 38 -6 17 8 51 17 76 18 31 2 47 8 49 18 4 20 -44 28 -59 11 -15 -18 -60
-18 -85 0 -26 19 -13 29 20 16 31 -12 92 9 102 35 5 12 9 13 20 4 11 -9 14 -9
14 0 0 7 5 9 10 6 17 -11 11 -61 -11 -89 l-21 -27 31 -12 c17 -6 31 -17 31
-23 0 -7 14 -23 31 -36 51 -38 92 -79 86 -85 -4 -3 -18 2 -32 11 -32 21 -33 3
-1 -25 14 -12 34 -44 46 -71 13 -30 29 -52 41 -55 12 -4 18 -11 15 -19 -13
-35 -18 -144 -7 -176 7 -20 33 -54 61 -79 51 -45 64 -81 34 -93 -23 -9 -34 2
-34 34 0 16 -5 32 -12 36 -33 20 42 -227 83 -271 10 -11 25 -37 34 -57 16 -40
21 -123 7 -132 -9 -5 -32 79 -32 117 0 18 -2 19 -10 7 -15 -23 -12 -58 12
-132 13 -41 37 -87 60 -114 34 -41 38 -52 38 -103 0 -109 -21 -168 -36 -103
-13 52 -73 167 -118 226 -25 32 -51 76 -57 98 -6 22 -15 51 -19 64 -14 35 4
30 30 -8 l22 -33 -6 30 c-4 17 -9 46 -13 65 -4 24 -26 56 -69 102 -86 92 -111
141 -42 83 27 -23 58 -33 58 -19 0 4 -25 33 -56 67 -31 33 -63 75 -72 94 -9
19 -21 32 -28 29 -8 -3 -11 1 -8 9 3 8 -4 30 -16 50 -23 38 -18 45 12 18 11
-10 39 -17 68 -19 68 -3 66 15 -9 86 -55 53 -90 100 -75 100 4 0 16 -7 26 -17
10 -9 21 -13 26 -9 4 5 -15 27 -43 51 -48 42 -72 52 -45 20 27 -32 -9 -13 -39
20 -29 34 -31 34 -31 12 0 -13 14 -45 31 -72 42 -67 50 -91 39 -119 -7 -19 -1
-48 24 -123 60 -177 135 -349 112 -257 -6 23 -5 24 14 14 29 -16 35 -38 16
-59 -18 -20 -20 -40 -5 -61 8 -12 9 -10 4 7 -8 31 9 36 32 10 14 -14 22 -42
26 -81 4 -35 17 -80 33 -110 73 -141 127 -254 144 -307 23 -67 27 -148 8 -153
-7 -2 -32 -9 -55 -15 -23 -6 -55 -23 -71 -36 -38 -32 -56 -31 -128 5 l-59 29
6 113 c5 111 37 288 51 288 3 0 10 -9 13 -20 12 -37 52 -23 69 24 5 15 3 17
-11 11 -40 -16 -50 -16 -57 1 -5 12 -1 23 8 30 21 15 20 21 -2 26 -13 4 -22
23 -31 64 -7 32 -40 134 -72 225 -33 91 -66 190 -75 220 -25 89 -24 86 -39 65
-8 -10 -19 -15 -26 -11 -9 6 -10 -9 -7 -59 3 -50 1 -66 -9 -66 -10 0 -12 -11
-7 -42 8 -57 11 -68 24 -68 5 0 11 24 11 53 2 65 12 116 21 101 4 -6 4 -80 -1
-165 -7 -131 -12 -163 -33 -214 -14 -33 -29 -82 -33 -110 -8 -55 -20 -85 -35
-85 -6 0 -10 7 -10 15 0 8 -9 15 -20 15 -21 0 -40 -27 -40 -57 0 -11 -17 -53
-38 -95 -38 -74 -39 -79 -45 -214 -5 -109 -14 -170 -42 -284 -37 -154 -43
-233 -20 -264 24 -32 26 -96 7 -187 -11 -57 -15 -97 -10 -115 5 -16 6 -81 2
-144 -5 -96 -2 -130 15 -207 26 -113 27 -178 5 -187 -24 -9 -34 -7 -34 8 0 7
-10 26 -22 42 -21 27 -23 38 -22 165 0 114 3 140 17 154 13 12 17 34 17 84 0
96 -8 131 -29 124 -10 -3 -7 2 7 14 l23 19 -30 21 -29 22 -6 -22 c-3 -12 -3
-48 0 -82 8 -88 -14 -47 -26 51 -5 42 -15 82 -20 89 -14 17 -9 172 5 165 6 -3
9 -31 8 -63 -3 -67 11 -75 28 -15 6 24 20 60 30 80 26 51 26 79 0 47 -11 -13
-22 -21 -26 -17 -4 3 -9 35 -12 70 -3 35 -11 78 -20 96 -8 18 -16 65 -18 105
-6 157 -24 383 -30 400 -11 26 -29 15 -36 -22 -9 -46 -15 -47 -35 -9 -18 36
-33 50 -47 41 -4 -2 -1 -16 9 -31 l17 -25 -32 22 c-37 27 -56 22 -104 -24 -41
-39 -66 -100 -48 -118 6 -6 11 -28 11 -50 0 -23 4 -36 10 -32 6 3 10 24 10 45
0 21 5 51 11 67 l12 28 9 -40 c13 -54 6 -421 -8 -435 -18 -18 -40 19 -69 120
-33 114 -34 116 -49 94 -10 -14 -15 -3 -29 67 -13 65 -35 122 -101 254 -91
185 -93 190 -105 265 -6 36 -5 53 5 61 10 8 7 21 -12 65 -13 30 -24 63 -24 74
0 11 -10 49 -22 85 -21 65 -21 68 -4 122 10 31 24 98 31 150 7 51 19 101 26
109 11 14 15 13 29 -6 18 -24 50 -24 58 -1 3 10 -1 12 -17 8 -14 -3 -21 0 -21
9 0 7 11 16 25 20 14 3 29 13 34 22 12 21 31 6 31 -24 0 -17 5 -24 20 -24 22
0 26 20 8 38 -7 7 -8 12 -2 12 5 0 15 -5 21 -11 15 -15 121 55 290 194 120 98
124 99 143 82 11 -10 23 -16 26 -12 3 3 17 2 30 -3 20 -8 24 -6 24 11 0 11 5
17 10 14 6 -3 10 -35 10 -71 0 -41 4 -64 11 -64 8 0 10 15 7 45 -5 38 -3 44 8
34 11 -9 14 -8 14 5 0 9 5 16 11 16 7 0 9 -12 5 -35 -4 -22 -3 -35 4 -35 5 0
10 5 10 12 0 7 9 -5 20 -27 23 -45 24 -49 10 -40 -6 4 -10 -25 -10 -80 0 -65
3 -86 13 -83 7 3 15 32 19 67 8 74 16 99 17 54 1 -17 4 -39 8 -49 6 -16 7 -16
14 2 6 14 8 10 8 -17 1 -19 -6 -44 -14 -55 -23 -31 -1 -124 30 -124 17 0 19
-35 6 -92 -5 -21 -5 -38 0 -38 17 0 30 43 40 133 6 51 13 94 16 97 2 3 10 -3
17 -13 34 -46 35 2 1 75 -14 29 -25 60 -25 69 0 9 -7 22 -15 29 -23 19 -19 52
6 48 16 -2 29 -26 60 -105 23 -57 44 -103 48 -103 4 0 4 24 0 53 -4 28 -8 59
-8 67 -1 8 -6 22 -11 30 -8 12 -12 12 -18 2 -6 -9 -13 -1 -25 28 -15 38 -15
40 4 40 25 0 24 21 -2 54 -28 35 -42 33 -34 -4 6 -29 6 -30 -17 -20 -32 15
-58 107 -58 207 0 68 -4 84 -26 116 -28 43 -28 67 1 82 48 24 115 77 110 86
-10 14 -20 11 -59 -20 -38 -31 -66 -31 -66 -2 0 28 101 119 135 122 53 4 64 0
71 -26 12 -50 54 -17 54 42 0 36 4 42 52 76 29 19 56 33 61 30 5 -3 15 -21 23
-39z m-532 -41 c-4 -10 -7 -30 -6 -45 1 -33 -8 -35 -32 -9 -19 21 -13 46 10
37 9 -3 14 2 14 14 0 11 5 20 11 20 7 0 8 -7 3 -17z m-631 -7 c6 -16 -13 -26
-49 -26 -26 0 -30 10 -12 28 16 16 55 15 61 -2z m1267 -72 c0 -16 -36 -19 -45
-4 -3 5 -3 21 1 36 l7 27 19 -22 c10 -13 18 -29 18 -37z m-460 6 c0 -3 -9 -11
-20 -18 -17 -10 -20 -10 -20 6 0 11 7 18 20 18 11 0 20 -3 20 -6z m-60 -56 c0
-9 -5 -14 -12 -12 -18 6 -21 28 -4 28 9 0 16 -7 16 -16z m-690 -18 c0 -20 -26
-40 -35 -26 -10 16 2 40 20 40 8 0 15 -6 15 -14z m67 -12 c2 -6 -6 -10 -19
-10 -16 1 -24 -7 -31 -31 -10 -34 -27 -45 -27 -18 0 33 29 72 51 71 12 0 24
-6 26 -12z m963 -10 c0 -9 -9 -18 -20 -21 -23 -6 -27 -28 -5 -37 8 -3 15 -11
15 -18 0 -7 -11 -1 -24 14 -16 18 -27 23 -34 16 -5 -5 -20 -8 -33 -6 -21 3
-17 8 31 36 63 36 70 38 70 16z m90 6 c0 -5 -6 -10 -14 -10 -8 0 -16 -6 -18
-12 -3 -7 -7 -2 -10 10 -5 18 -2 22 18 22 13 0 24 -4 24 -10z m46 -35 c9 -39
0 -30 -15 15 -6 19 -7 30 -2 25 5 -6 13 -23 17 -40z m-1201 -95 c-7 -47 -12
-86 -11 -87 1 -1 16 7 34 17 19 12 32 28 32 40 0 19 36 100 44 100 7 0 -16
-115 -26 -127 -6 -7 -22 -19 -37 -26 -17 -8 -37 -34 -56 -74 -16 -35 -33 -63
-37 -63 -11 0 -10 38 0 44 5 3 9 27 10 55 0 27 11 82 23 123 36 119 42 119 24
-2z m855 61 c0 -5 -7 -11 -15 -15 -15 -5 -20 5 -8 17 9 10 23 9 23 -2z m65
-11 c-28 -12 -37 -12 -30 0 3 6 16 10 28 9 21 0 21 -1 2 -9z m-265 -12 c17
-11 22 -10 30 2 5 8 12 11 16 7 12 -12 -59 -117 -104 -154 -24 -19 -45 -33
-47 -31 -2 2 2 21 9 41 7 20 15 35 18 32 6 -7 58 52 58 66 0 16 -16 10 -40
-16 -27 -29 -40 -32 -40 -9 0 18 53 74 69 74 6 0 20 -6 31 -12z m-626 -45 c-3
-21 -11 -42 -17 -48 -7 -7 -8 -4 -3 8 3 10 6 32 6 48 0 16 5 29 10 29 7 0 8
-14 4 -37z m1116 -9 c0 -14 -4 -23 -10 -19 -5 3 -10 15 -10 26 0 10 5 19 10
19 6 0 10 -12 10 -26z m-406 -22 c19 -37 33 -127 18 -118 -20 12 -53 146 -37
146 2 0 11 -12 19 -28z m481 -40 c-6 -15 -8 -15 -15 3 -5 11 -9 31 -9 45 l0
25 15 -28 c9 -16 12 -36 9 -45z m-492 -74 c18 -72 22 -138 9 -138 -9 0 -44 36
-57 59 -6 11 -4 13 8 8 22 -8 23 29 2 96 -16 54 -11 90 10 60 6 -10 19 -48 28
-85z m-568 54 c-15 -16 -16 -15 -4 12 7 15 15 23 17 16 3 -7 -3 -19 -13 -28z
m957 -2 c4 0 8 -4 8 -10 0 -14 -11 -12 -33 4 -11 9 -15 20 -10 32 6 16 7 16
16 -4 6 -12 14 -22 19 -22z m8 -40 c0 -5 -4 -10 -9 -10 -6 0 -13 5 -16 10 -3
6 1 10 9 10 9 0 16 -4 16 -10z m250 -15 c13 -14 33 -25 45 -25 12 0 49 -18 83
-40 55 -35 66 -48 103 -122 23 -46 57 -106 75 -134 53 -80 59 -104 41 -182 -9
-37 -18 -137 -21 -222 -3 -93 -11 -178 -20 -213 -9 -32 -16 -76 -16 -97 0 -28
-15 -68 -51 -137 -45 -86 -51 -106 -54 -168 -4 -72 -67 -295 -84 -295 -12 0
-21 26 -21 62 0 23 4 29 15 24 8 -3 19 2 23 12 16 29 22 148 10 179 -9 24 -8
36 5 63 22 42 21 51 -4 137 -15 48 -26 70 -34 67 -15 -6 -35 74 -35 142 0 24
-6 53 -12 64 -11 16 -10 23 5 37 17 17 19 17 32 -1 10 -13 13 -32 8 -59 -4
-29 -3 -38 5 -33 7 4 12 13 12 21 0 8 4 16 9 19 5 4 7 -3 4 -14 -8 -29 7 -130
18 -130 17 0 39 66 39 115 0 31 -4 45 -14 45 -18 0 -27 51 -16 92 6 18 10 34
10 35 0 1 -7 0 -15 -3 -8 -4 -15 -1 -15 6 0 7 -15 1 -34 -14 -42 -31 -61 -34
-44 -7 15 24 3 50 -50 108 -37 39 -37 40 -28 96 5 32 12 57 16 57 4 0 26 -6
48 -14 49 -18 66 -8 77 44 25 115 -3 235 -71 301 -35 33 -44 59 -21 59 17 -1
41 -20 61 -52 10 -16 25 -28 32 -28 8 0 13 -3 13 -7 -1 -5 -1 -17 0 -28 2 -32
21 4 21 40 0 45 -61 101 -117 108 -35 4 -41 2 -35 -11 7 -18 -118 69 -133 93
-14 22 9 35 66 35 36 0 51 -5 69 -25z m-184 -31 c4 -14 4 -28 0 -31 -14 -14
-60 50 -49 70 8 14 43 -13 49 -39z m-568 18 c2 -7 -3 -12 -12 -12 -9 0 -16 7
-16 16 0 17 22 14 28 -4z m-50 -9 c-2 -12 3 -17 14 -15 20 3 13 -34 -8 -42
-22 -8 -41 39 -24 59 16 20 22 19 18 -2z m195 -48 c4 -8 2 -17 -3 -20 -6 -4
-10 3 -10 14 0 25 6 27 13 6z m-827 -116 l-15 -34 2 35 c0 19 6 38 12 42 16
12 17 -7 1 -43z m1322 34 c5 -10 17 -53 26 -95 14 -64 22 -81 46 -98 l29 -21
7 26 c3 14 13 29 21 33 12 7 13 16 3 53 -23 90 -23 86 4 57 31 -35 64 -122 72
-195 9 -70 -5 -83 -87 -83 l-57 0 -37 58 c-35 55 -36 60 -31 125 3 46 0 78
-10 102 -8 19 -14 39 -14 45 0 16 18 12 28 -7z m95 -13 c3 -11 1 -20 -4 -20
-5 0 -9 2 -9 4 0 2 -3 11 -6 20 -3 9 -2 16 4 16 5 0 12 -9 15 -20z m30 -100
c3 -11 1 -20 -4 -20 -5 0 -9 2 -9 4 0 2 -3 11 -6 20 -3 9 -2 16 4 16 5 0 12
-9 15 -20z m-290 -122 c27 -26 27 -28 9 -28 -37 0 -70 21 -75 49 -3 14 -8 37
-12 51 -6 22 -4 21 21 -10 16 -19 41 -47 57 -62z m267 72 c0 -5 -7 -10 -15
-10 -8 0 -15 5 -15 10 0 6 7 10 15 10 8 0 15 -4 15 -10z m-536 -144 c3 -14 3
-32 -1 -42 -6 -16 -7 -16 -14 2 -11 27 -11 64 0 64 5 0 12 -11 15 -24z m893
-213 c-3 -10 -5 -4 -5 12 0 17 2 24 5 18 2 -7 2 -21 0 -30z m48 -140 c-3 -13
-10 -21 -15 -18 -6 4 -8 16 -5 28 3 12 7 36 9 52 8 65 10 68 13 16 2 -30 2
-65 -2 -78z m-742 55 l-11 -33 -1 45 c-1 33 2 41 11 32 8 -8 8 -20 1 -44z
m782 -7 c-4 -28 -12 -54 -17 -57 -11 -7 -3 90 9 109 11 18 15 -4 8 -52z
m-1995 -75 c0 -7 -7 -19 -15 -26 -12 -10 -15 -9 -15 7 0 11 3 23 7 26 11 12
23 8 23 -7z m1187 -33 c-3 -10 -5 -4 -5 12 0 17 2 24 5 18 2 -7 2 -21 0 -30z
m774 -69 c-10 -38 -20 -10 -13 36 4 30 6 32 13 13 4 -12 4 -34 0 -49z m-711
-53 c-6 -25 -29 -90 -51 -145 -22 -54 -38 -101 -35 -103 2 -2 10 8 18 24 7 15
20 28 28 28 9 0 14 8 12 19 -6 35 7 65 28 63 23 -1 20 -25 -15 -103 -22 -50
-24 -52 -91 -72 -115 -35 -154 -42 -154 -27 0 7 7 18 15 25 8 6 17 21 21 32 3
11 17 36 30 56 13 19 36 74 50 121 15 47 32 93 40 102 8 8 14 23 14 31 0 24
11 48 21 48 5 0 9 -12 9 -27 0 -22 2 -25 10 -13 16 25 12 -22 -5 -63 -16 -39
-20 -102 -6 -93 5 3 12 22 16 42 3 20 16 66 28 103 20 62 22 64 25 32 2 -19
-2 -55 -8 -80z m-1320 60 c0 -5 -7 -14 -15 -21 -12 -10 -15 -10 -15 2 0 8 3
18 7 21 9 10 23 9 23 -2z m60 -39 c0 -45 -28 -69 -61 -52 -23 13 -16 30 12 30
14 0 25 10 32 30 6 17 13 30 14 30 2 0 3 -17 3 -38z m1318 -32 c3 -21 2 -22
-12 -11 -19 16 -21 44 -3 39 6 -3 14 -15 15 -28z m-1388 -33 c35 -13 34 -28
-11 -96 -30 -47 -32 -54 -20 -85 7 -18 11 -16 48 18 50 45 71 90 55 117 -15
24 -15 29 0 29 6 0 19 7 29 16 16 14 18 10 38 -74 24 -100 25 -151 8 -202 -10
-28 -19 -36 -49 -42 -20 -4 -60 -22 -89 -39 l-51 -32 -36 19 c-33 18 -60 42
-107 96 -23 26 -21 56 5 80 16 15 19 15 24 2 3 -8 10 -12 16 -9 7 4 6 13 -1
27 -8 16 -8 22 2 29 11 6 11 11 1 21 -16 16 -16 61 0 56 7 -3 15 -15 18 -28 8
-33 30 -38 30 -6 0 14 -4 26 -10 26 -18 0 -10 22 10 27 14 4 20 14 20 35 0 16
5 39 11 51 l12 21 8 -23 c5 -12 22 -28 39 -34z m1990 2 c0 -22 4 -38 9 -35 5
3 7 15 4 26 -7 26 13 26 27 1 13 -26 13 -32 -2 -28 -10 1 -14 -21 -16 -80 -2
-52 -7 -83 -14 -83 -7 0 -9 22 -5 70 4 43 2 68 -4 65 -5 -4 -9 -28 -9 -54 0
-62 -10 -111 -22 -111 -12 0 -7 239 5 258 16 24 27 12 27 -29z m-1930 -79 c0
-19 -11 -26 -23 -14 -8 8 3 34 14 34 5 0 9 -9 9 -20z m1008 -162 c-8 -12 -21
-24 -29 -26 -8 -3 -3 7 10 22 30 32 39 34 19 4z m869 -60 c-3 -7 -5 -2 -5 12
0 14 2 19 5 13 2 -7 2 -19 0 -25z m-735 -32 c-2 -21 2 -53 8 -72 9 -27 19 -36
51 -45 21 -7 41 -19 44 -28 7 -24 76 -92 86 -85 5 3 17 0 26 -5 17 -10 17 -10
1 -11 -21 0 -23 -11 -6 -28 17 -17 28 -15 21 6 -5 14 -3 13 10 -3 19 -23 22
-45 7 -45 -8 0 -8 -6 -1 -17 5 -10 17 -18 27 -18 34 0 25 -23 -11 -27 -40 -5
-56 8 -80 65 -11 26 -19 35 -31 30 -29 -11 -104 79 -104 125 0 10 -14 29 -31
41 -32 24 -59 75 -59 111 0 12 5 18 10 15 6 -3 10 3 10 15 0 13 5 20 13 17 7
-2 11 -18 9 -41z m824 -44 c-3 -19 -7 -36 -10 -39 -11 -11 -27 52 -20 81 6 28
7 29 20 11 8 -11 12 -33 10 -53z m-266 -42 c0 -11 -4 -20 -10 -20 -5 0 -10 9
-10 20 0 11 5 20 10 20 6 0 10 -9 10 -20z m239 -60 c1 -26 -2 -31 -9 -20 -5 8
-9 33 -9 55 0 31 2 36 9 20 5 -11 9 -36 9 -55z m-259 14 c0 -18 -13 -24 -27
-13 -7 6 -13 20 -13 30 0 17 3 18 20 7 11 -7 20 -18 20 -24z m-40 -53 c0 -11
-4 -23 -10 -26 -5 -3 -10 -12 -10 -18 0 -7 4 -6 10 3 23 36 18 -5 -10 -89 -30
-91 -38 -172 -20 -201 8 -13 11 -12 24 5 16 21 17 24 19 70 2 23 7 31 25 33
16 2 22 10 22 27 0 34 15 39 30 10 10 -19 11 -31 2 -50 -6 -14 -9 -31 -6 -40
3 -8 -8 -55 -25 -104 -17 -49 -31 -95 -31 -101 0 -19 -31 -80 -41 -80 -16 0
-10 57 11 110 22 55 26 100 10 100 -16 0 -50 -63 -45 -81 7 -20 -11 -69 -24
-69 -5 0 -7 8 -4 18 2 10 -3 61 -11 115 -21 126 -20 143 5 168 18 18 19 28 13
92 -4 40 -10 82 -15 94 -9 24 1 30 54 32 20 1 27 -4 27 -18z m-1345 -69 c11
-78 16 -94 31 -88 9 4 18 -11 29 -46 18 -61 19 -109 4 -194 -7 -43 -8 -68 -1
-81 10 -16 12 -15 21 10 6 16 11 36 11 45 0 30 12 62 20 57 5 -3 14 -30 20
-59 6 -30 19 -61 30 -71 28 -26 32 -63 15 -140 -11 -46 -18 -146 -22 -290 -5
-158 -9 -206 -14 -170 -5 27 -14 54 -22 60 -9 7 -13 22 -9 44 3 24 1 32 -7 27
-8 -5 -11 27 -11 119 0 108 -3 132 -21 167 -18 35 -19 40 -4 34 9 -3 19 -6 21
-6 2 0 4 -4 4 -9 0 -5 5 -22 11 -38 l11 -28 14 30 c22 51 17 84 -18 117 l-33
30 -6 -23 c-5 -15 -7 -18 -8 -7 -1 9 -10 33 -22 52 -19 33 -20 40 -9 108 7 40
12 78 13 83 0 6 -16 57 -36 115 -39 115 -60 250 -34 217 8 -10 18 -39 22 -65z
m1238 30 c23 -25 31 -71 18 -105 -9 -24 -14 -26 -31 -17 -27 14 -45 77 -31
113 12 32 22 34 44 9z m-79 -61 c-5 -29 -10 -38 -15 -29 -13 20 -11 66 4 71
18 6 18 4 11 -42z m606 -55 c-1 -6 -10 0 -20 13 -11 13 -20 28 -20 35 1 6 10
0 20 -13 11 -13 20 -28 20 -35z m-390 -6 c0 -20 -49 -84 -58 -76 -2 3 3 17 12
31 10 15 15 33 12 42 -3 8 -4 19 -1 23 9 15 35 -1 35 -20z m-90 -384 c0 -8 -4
-18 -10 -21 -5 -3 -10 3 -10 14 0 12 5 21 10 21 6 0 10 -6 10 -14z m-1226 -61
c3 -8 1 -15 -4 -15 -6 0 -10 7 -10 15 0 8 2 15 4 15 2 0 6 -7 10 -15z m1203
-46 c-8 -19 -22 -43 -31 -54 -15 -19 -15 -19 -7 10 21 70 34 96 43 87 6 -6 4
-22 -5 -43z m-787 -241 c0 -25 -3 -29 -10 -18 -13 20 -13 50 0 50 6 0 10 -15
10 -32z m-19 -295 c-9 -15 -10 -13 -11 13 0 17 3 34 8 38 11 12 14 -32 3 -51z
m30 -136 c-8 -8 -11 -7 -11 4 0 20 13 34 18 19 3 -7 -1 -17 -7 -23z"/>
<path d="M1497 5344 c-11 -11 -8 -62 4 -69 16 -10 50 26 47 49 -3 21 -37 34
-51 20z"/>
<path d="M1450 5271 c0 -6 9 -15 21 -21 18 -10 20 -9 17 7 -3 19 -38 32 -38
14z"/>
<path d="M1785 4489 c-4 -6 -5 -13 -2 -16 7 -7 27 6 27 18 0 12 -17 12 -25 -2z"/>
<path d="M810 3630 c0 -25 14 -99 30 -164 17 -66 30 -132 30 -148 0 -50 35
-27 46 30 5 25 3 32 -9 32 -10 0 -17 15 -21 48 -8 55 -56 223 -68 237 -4 5 -8
-11 -8 -35z"/>
<path d="M703 3174 c-26 -36 -42 -91 -24 -80 16 10 53 85 49 98 -3 7 -14 -2
-25 -18z"/>
<path d="M555 3170 c-23 -26 -4 -26 26 0 18 15 20 19 8 20 -9 0 -24 -9 -34
-20z"/>
<path d="M566 3111 c-3 -21 -9 -46 -12 -55 -4 -11 -1 -16 10 -16 19 0 38 44
34 79 -5 40 -25 35 -32 -8z"/>
<path d="M1910 4010 c0 -5 7 -10 15 -10 8 0 15 5 15 10 0 6 -7 10 -15 10 -8 0
-15 -4 -15 -10z"/>
<path d="M379 3476 c-20 -39 -21 -48 -10 -68 11 -22 8 -31 -28 -94 -46 -80
-53 -107 -30 -112 12 -2 23 13 39 52 13 30 31 56 40 59 14 4 16 13 13 53 -3
30 1 66 11 93 25 74 2 85 -35 17z"/>
<path d="M307 3117 c-8 -6 -17 -23 -19 -37 -2 -20 1 -24 17 -22 18 2 18 1 -4
-18 -13 -11 -29 -20 -36 -20 -31 0 -30 -82 1 -94 22 -9 34 1 34 29 0 15 11 33
30 47 35 26 36 32 12 87 -16 35 -21 39 -35 28z"/>
<path d="M171 3013 c-9 -19 -9 -29 -1 -37 13 -13 30 8 30 36 0 28 -16 29 -29
1z"/>
<path d="M282 2892 c-17 -11 -4 -44 16 -40 8 2 16 13 17 26 2 23 -10 28 -33
14z"/>
<path d="M1353 3657 c-13 -5 -23 -18 -23 -29 0 -16 3 -16 20 -6 18 11 35 37
28 43 -2 1 -13 -2 -25 -8z"/>
<path d="M1450 3353 c0 -13 29 -38 35 -31 3 3 -4 13 -15 23 -11 10 -20 13 -20
8z"/>
<path d="M1380 3281 c0 -56 -3 -71 -15 -71 -8 0 -15 -4 -15 -10 0 -5 9 -10 19
-10 11 0 23 5 26 10 11 17 33 11 40 -11 4 -12 13 -18 20 -15 8 3 19 -2 25 -10
19 -22 43 -18 35 7 -8 23 -4 22 47 -13 36 -25 52 -24 38 2 -6 11 -28 29 -49
39 -20 11 -54 40 -74 65 -21 25 -51 55 -67 66 l-30 21 0 -70z"/>
<path d="M1075 3143 c-11 -14 -25 -30 -31 -36 -9 -11 -54 -172 -54 -197 0 -5
7 -10 15 -10 23 0 18 -28 -10 -56 -14 -14 -25 -30 -25 -36 0 -23 -25 -83 -42
-100 -19 -19 -24 -48 -8 -48 12 0 90 117 90 135 0 7 8 12 17 11 15 -1 20 13
30 72 7 43 21 83 33 99 15 20 20 39 19 87 -1 33 -4 71 -7 82 -7 21 -7 21 -27
-3z"/>
<path d="M1182 3110 c0 -19 2 -27 5 -17 2 9 2 25 0 35 -3 9 -5 1 -5 -18z"/>
<path d="M460 2823 c-7 -15 -16 -48 -20 -73 -4 -25 -11 -53 -15 -64 -6 -14 -5
-18 6 -14 20 6 59 87 59 123 0 47 -14 60 -30 28z"/>
<path d="M1640 2830 c0 -21 49 -60 75 -60 18 0 25 -5 25 -19 0 -11 5 -23 10
-26 19 -12 10 34 -12 59 -26 29 -98 63 -98 46z"/>
<path d="M594 2672 c-6 -4 -16 -41 -22 -82 -7 -41 -15 -90 -18 -107 -9 -46 22
-46 31 0 4 17 12 40 17 50 8 16 13 12 40 -30 31 -50 67 -85 80 -77 11 7 -9 52
-46 103 -18 25 -36 64 -39 85 -7 43 -26 69 -43 58z"/>
<path d="M1385 2655 c-4 -11 -21 -51 -37 -90 -55 -135 -46 -220 11 -96 17 37
31 72 31 77 0 5 9 20 20 34 23 30 26 50 6 50 -8 0 -16 10 -19 23 -3 21 -4 21
-12 2z"/>
<path d="M1183 2623 c-4 -10 -24 -34 -45 -53 l-39 -35 13 -69 13 -70 43 106
c23 59 42 114 42 122 0 22 -19 20 -27 -1z"/>
<path d="M1267 2602 c-9 -10 -17 -30 -17 -45 0 -15 -13 -59 -29 -99 -36 -93
-43 -122 -35 -153 5 -19 10 -23 19 -15 17 14 82 158 89 199 5 30 4 32 -11 20
-14 -12 -15 -12 -10 1 22 57 29 92 20 101 -6 6 -15 3 -26 -9z m-7 -157 c0 -8
-4 -15 -10 -15 -5 0 -10 7 -10 15 0 8 5 15 10 15 6 0 10 -7 10 -15z"/>
<path d="M870 2495 c-25 -30 26 -109 64 -99 18 4 29 -2 47 -26 13 -17 35 -45
49 -63 44 -55 51 -81 34 -122 -8 -19 -14 -47 -14 -63 0 -15 -3 -49 -6 -76 -8
-60 8 -55 37 11 l19 45 28 -30 c26 -27 107 -60 119 -49 8 8 71 182 68 185 -2
2 -13 1 -24 -3 -12 -3 -22 -18 -26 -38 -9 -41 -45 -107 -59 -107 -6 0 -17 9
-24 20 -7 11 -18 17 -27 14 -20 -8 -19 15 0 35 21 22 90 140 100 171 15 46
-24 2 -60 -69 -18 -36 -45 -77 -59 -90 l-26 -24 0 22 c0 13 -4 19 -10 16 -6
-4 0 13 12 36 15 29 18 44 10 47 -8 2 -10 19 -6 50 4 35 3 43 -5 32 -6 -8 -11
-23 -11 -32 0 -9 -4 -19 -8 -22 -5 -3 -7 27 -5 67 4 64 2 76 -19 107 -16 23
-33 36 -51 38 -26 3 -27 1 -22 -25 l7 -28 -22 25 -21 25 6 -25 6 -25 -18 25
c-25 34 -51 60 -62 60 -5 0 -14 -7 -21 -15z"/>
<path d="M610 2420 c0 -5 13 -24 30 -42 26 -29 29 -30 30 -13 0 26 -27 65 -46
65 -8 0 -14 -4 -14 -10z"/>
<path d="M740 2348 c0 -35 70 -111 87 -94 10 10 -19 66 -45 86 -29 23 -42 25
-42 8z"/>
<path d="M920 2290 c0 -46 12 -75 35 -84 12 -4 15 4 15 42 -1 38 -5 50 -25 65
l-25 18 0 -41z"/>
<path d="M1710 2321 c0 -5 7 -15 17 -22 15 -13 15 -12 4 9 -12 23 -21 28 -21
13z"/>
<path d="M473 2275 c-10 -26 4 -106 21 -123 15 -15 16 -11 16 45 0 65 -6 93
-21 93 -5 0 -12 -7 -16 -15z"/>
<path d="M650 2254 c0 -31 33 -85 61 -100 41 -21 39 2 -6 56 -19 23 -35 46
-35 51 0 5 -4 9 -10 9 -5 0 -10 -7 -10 -16z"/>
<path d="M570 2217 c0 -14 24 -61 78 -157 18 -30 32 -65 32 -77 0 -13 4 -23 9
-23 6 0 20 10 33 23 13 12 19 19 14 15 -18 -14 -36 -8 -36 11 0 21 48 36 64
20 11 -10 59 -12 69 -3 3 4 -10 23 -29 43 -28 30 -36 33 -44 21 -8 -13 -14
-12 -45 4 -39 22 -90 74 -107 112 -12 26 -38 33 -38 11z"/>
<path d="M899 2141 c-23 -72 -21 -100 6 -65 19 26 38 115 26 127 -6 6 -18 -18
-32 -62z"/>
<path d="M972 2146 c-15 -35 -7 -72 9 -43 6 10 9 30 7 45 l-4 27 -12 -29z"/>
<path d="M1693 2065 c-1 -48 1 -55 18 -55 10 0 18 6 17 13 -2 6 5 11 15 9 14
-2 17 5 17 41 0 42 -1 44 -32 45 l-33 1 -2 -54z m57 0 c0 -8 -4 -15 -10 -15
-5 0 -10 7 -10 15 0 8 5 15 10 15 6 0 10 -7 10 -15z"/>
<path d="M1140 1991 c0 -31 31 -73 38 -52 5 16 -18 81 -29 81 -5 0 -9 -13 -9
-29z"/>
<path d="M1666 1975 c-3 -9 8 -30 25 -50 l31 -35 -26 0 c-14 0 -26 -4 -26 -10
0 -5 11 -10 25 -10 14 0 24 -3 24 -7 -1 -5 -1 -16 0 -26 1 -16 4 -16 42 3 l40
21 -28 34 c-16 19 -38 34 -50 34 -13 1 -23 6 -23 11 0 6 3 9 8 9 18 -3 32 2
32 11 0 6 -9 10 -19 10 -11 0 -23 5 -26 10 -9 15 -22 12 -29 -5z"/>
<path d="M1144 1873 c-23 -63 -36 -85 -54 -90 -11 -3 -20 -7 -20 -10 0 -16 25
-45 52 -59 l31 -16 -6 47 c-6 38 -3 51 14 74 22 30 23 61 2 69 -7 2 -16 -5
-19 -15z"/>
<path d="M1740 1796 c0 -2 11 -6 25 -8 14 -3 25 -1 25 3 0 5 -11 9 -25 9 -14
0 -25 -2 -25 -4z"/>
<path d="M1095 1546 c1 -75 5 -139 8 -142 9 -10 22 87 22 168 0 58 -4 81 -16
94 -16 15 -17 6 -14 -120z"/>
<path d="M1132 1420 c0 -14 2 -19 5 -12 2 6 2 18 0 25 -3 6 -5 1 -5 -13z"/>
<path d="M1106 1238 c26 -87 54 -115 54 -55 0 37 -24 77 -46 77 -11 0 -13 -6
-8 -22z"/>
<path d="M2086 3018 c-3 -7 -10 -49 -16 -93 -7 -44 -18 -95 -26 -114 -8 -19
-12 -36 -9 -39 8 -8 32 17 45 48 7 17 21 30 33 32 13 2 23 11 24 23 2 11 0 14
-3 8 -3 -7 -10 -13 -14 -13 -5 0 -2 17 6 37 16 38 13 85 -7 110 -14 16 -28 17
-33 1z"/>
<path d="M2196 2858 c-28 -112 -47 -198 -45 -209 2 -8 0 -23 -3 -34 -25 -83
-14 -125 17 -65 10 19 12 30 4 30 -6 0 -9 6 -6 13 2 6 9 11 16 10 13 -3 26 41
16 56 -3 6 -3 17 2 24 9 14 17 187 8 187 -3 0 -7 -6 -9 -12z"/>
<path d="M1903 2732 c-13 -41 -11 -47 12 -39 9 4 15 19 15 36 0 44 -14 45 -27
3z"/>
<path d="M2094 2762 c-6 -4 -21 -28 -32 -54 -12 -28 -27 -48 -37 -48 -12 0
-35 -35 -35 -54 0 -1 11 -2 23 -1 34 0 53 19 82 80 33 71 33 100 -1 77z"/>
<path d="M2020 2746 c0 -8 7 -16 15 -20 17 -6 18 -4 9 18 -8 20 -24 21 -24 2z"/>
<path d="M1962 2718 c-13 -21 -22 -48 -20 -60 3 -21 5 -19 26 16 13 21 22 48
20 60 -3 18 -6 16 -26 -16z"/>
<path d="M2027 2693 c-4 -3 -7 -11 -7 -17 0 -6 5 -5 12 2 6 6 9 14 7 17 -3 3
-9 2 -12 -2z"/>
<path d="M1955 2621 c-3 -5 -1 -12 4 -15 5 -3 11 1 15 9 6 16 -9 21 -19 6z"/>
<path d="M2175 2546 c-21 -31 -38 -193 -21 -199 5 -2 4 -13 -3 -24 -6 -12 -11
-33 -11 -47 0 -14 -4 -28 -10 -31 -9 -6 -22 -49 -34 -114 -5 -29 -4 -32 9 -21
8 7 15 23 15 37 0 13 8 38 17 56 18 34 33 101 36 154 1 17 6 35 10 39 11 11 8
46 -3 39 -13 -8 -13 -7 6 48 8 25 14 56 12 69 -3 23 -4 23 -23 -6z"/>
<path d="M2067 2255 c-19 -40 -23 -65 -8 -49 15 14 42 84 33 84 -5 0 -16 -16
-25 -35z"/>
<path d="M1867 2913 c-4 -3 -7 -12 -7 -20 0 -15 105 -19 115 -4 13 22 -88 44
-108 24z"/>
<path d="M300 2088 c-30 -27 -55 -52 -55 -56 -1 -4 -9 -22 -18 -39 -10 -19
-13 -33 -7 -33 6 0 13 7 16 15 4 8 10 15 15 15 6 0 5 -8 -1 -19 -13 -25 -13
-51 0 -51 6 0 10 9 10 19 0 11 17 41 37 68 20 26 37 55 38 65 1 9 7 23 14 32
7 8 11 19 9 25 -1 5 -28 -13 -58 -41z"/>
<path d="M1550 1776 c0 -16 28 -42 36 -33 8 7 -14 47 -26 47 -6 0 -10 -6 -10
-14z"/>
<path d="M1596 1706 c6 -15 34 -30 34 -18 0 4 -9 13 -20 19 -16 11 -18 10 -14
-1z"/>
<path d="M2000 1460 c-15 -45 -6 -65 16 -36 15 21 19 76 6 76 -5 0 -15 -18
-22 -40z"/>
<path d="M862 1828 c-19 -19 -14 -28 18 -28 17 0 30 4 30 8 0 9 -21 32 -30 32
-3 0 -11 -5 -18 -12z"/>
<path d="M608 282 c-16 -2 -28 -9 -28 -17 0 -7 -7 -15 -15 -19 -8 -3 -15 -16
-15 -29 0 -13 -5 -28 -11 -34 -15 -15 4 -25 34 -18 19 5 30 20 45 63 12 31 20
56 19 57 -1 0 -14 -1 -29 -3z"/>
<path d="M1194 195 c-4 -8 -3 -31 0 -50 7 -35 6 -36 -41 -57 -54 -23 -85 -47
-78 -59 7 -11 59 6 111 36 l44 26 0 59 c0 47 -3 60 -15 60 -9 0 -18 -7 -21
-15z"/>
<path d="M1027 193 c-16 -15 -5 -33 19 -33 23 0 54 20 54 34 0 8 -65 7 -73 -1z"/>
<path d="M1025 120 c-4 -12 -1 -28 6 -37 12 -13 14 -12 21 13 11 43 -14 65
-27 24z"/>
</g>
</svg>
