<?xml version="1.0" standalone="no"?>
<!DOCTYPE svg PUBLIC "-//W3C//DTD SVG 20010904//EN"
 "http://www.w3.org/TR/2001/REC-SVG-20010904/DTD/svg10.dtd">
<svg version="1.0" xmlns="http://www.w3.org/2000/svg"
 width="920.000000pt" height="512.000000pt" viewBox="0 0 920.000000 512.000000"
 preserveAspectRatio="xMidYMid meet">

<g transform="translate(0.000000,512.000000) scale(0.100000,-0.100000)"
fill="#be8343" stroke="none">
<path d="M4330 5117 c-3 -2 -212 -7 -465 -10 -397 -5 -476 -9 -575 -26 -314
-55 -567 -186 -796 -415 -213 -214 -339 -442 -405 -735 -32 -144 -41 -425 -41
-1351 0 -939 9 -1250 41 -1391 66 -293 192 -522 405 -735 215 -214 439 -337
736 -404 127 -29 360 -38 1070 -42 1041 -6 1499 5 1662 40 295 64 529 191 743
406 174 175 284 350 360 571 71 208 82 364 87 1250 6 1034 -5 1483 -40 1647
-103 481 -426 873 -877 1064 -195 83 -339 110 -640 118 -276 9 -1259 18 -1265
13z m1430 -497 c131 -14 227 -42 346 -100 232 -115 422 -330 504 -570 48 -140
51 -175 61 -660 11 -507 4 -1754 -11 -1890 -39 -349 -246 -648 -554 -800 -115
-56 -221 -86 -351 -100 -146 -15 -1372 -22 -1880 -11 -491 10 -524 13 -665 61
-241 82 -456 273 -569 504 -58 119 -86 214 -102 351 -17 139 -17 2156 0 2305
15 140 42 235 101 355 135 275 391 474 695 541 62 13 154 19 405 24 435 10
1901 2 2020 -10z"/>
<path d="M5792 4159 c-70 -35 -105 -71 -140 -148 -34 -73 -29 -186 11 -254 61
-104 174 -165 284 -154 245 25 357 308 194 489 -62 69 -125 98 -217 98 -59 0
-81 -5 -132 -31z"/>
<path d="M4366 3854 c-252 -46 -488 -168 -675 -349 -206 -200 -338 -446 -386
-719 -20 -115 -20 -337 0 -452 48 -272 180 -519 384 -717 193 -187 427 -306
686 -351 116 -21 336 -21 451 -1 272 48 519 180 717 384 186 193 307 427 352
685 20 115 20 335 -1 451 -48 277 -184 528 -394 729 -189 179 -421 296 -675
340 -112 20 -350 20 -459 0z m460 -490 c291 -84 507 -305 586 -599 29 -111 29
-297 -1 -410 -27 -103 -97 -243 -161 -322 -106 -132 -274 -239 -445 -284 -113
-30 -299 -30 -410 -1 -239 64 -435 223 -541 437 -63 129 -86 225 -88 365 -1
148 21 245 84 375 103 211 275 360 502 434 144 47 322 49 474 5z"/>
</g>
</svg>
