<?xml version="1.0" standalone="no"?>
<!DOCTYPE svg PUBLIC "-//W3C//DTD SVG 20010904//EN"
 "http://www.w3.org/TR/2001/REC-SVG-20010904/DTD/svg10.dtd">
<svg version="1.0" xmlns="http://www.w3.org/2000/svg"
 width="500.000000pt" height="500.000000pt" viewBox="0 0 500.000000 500.000000"
 preserveAspectRatio="xMidYMid meet">

<g transform="translate(0.000000,500.000000) scale(0.100000,-0.100000)"
fill="#be8343" stroke="none">
<path d="M1250 3745 l-1245 -1245 1248 -1248 1247 -1247 1247 1247 1248 1248
-1245 1245 c-685 685 -1247 1245 -1250 1245 -3 0 -565 -560 -1250 -1245z
m2440 -60 l1185 -1185 -1188 -1187 -1187 -1187 -1188 1187 -1187 1187 1185
1185 c652 652 1187 1185 1190 1185 3 0 538 -533 1190 -1185z"/>
<path d="M2335 2975 c-38 -7 -96 -23 -128 -35 -49 -18 -56 -25 -52 -43 2 -12
12 -60 21 -107 24 -125 30 -135 39 -70 8 58 24 90 65 129 94 89 278 79 335
-19 33 -58 27 -158 -15 -240 -69 -137 -233 -320 -422 -473 l-77 -62 337 -5
c185 -3 340 -3 344 0 6 4 33 85 78 233 11 36 7 34 -24 -13 -45 -68 -66 -74
-281 -78 l-190 -3 65 58 c123 110 232 218 277 275 108 141 120 265 33 357 -49
51 -97 75 -194 95 -90 18 -115 19 -211 1z"/>
</g>
</svg>
