<?xml version="1.0" standalone="no"?>
<!DOCTYPE svg PUBLIC "-//W3C//DTD SVG 20010904//EN"
 "http://www.w3.org/TR/2001/REC-SVG-20010904/DTD/svg10.dtd">
<svg version="1.0" xmlns="http://www.w3.org/2000/svg"
 width="500.000000pt" height="500.000000pt" viewBox="0 0 500.000000 500.000000"
 preserveAspectRatio="xMidYMid meet">

<g transform="translate(0.000000,500.000000) scale(0.100000,-0.100000)"
fill="#be8343" stroke="none">
<path d="M1250 3745 l-1245 -1245 1248 -1248 1247 -1247 1247 1247 1248 1248
-1245 1245 c-685 685 -1247 1245 -1250 1245 -3 0 -565 -560 -1250 -1245z
m2440 -60 l1185 -1185 -1188 -1187 -1188 -1187 -1187 1187 -1187 1187 1185
1185 c652 652 1187 1185 1190 1185 3 0 538 -533 1190 -1185z"/>
<path d="M2480 3024 c-25 -18 -61 -45 -82 -59 -42 -28 -57 -47 -40 -53 7 -2
12 -25 12 -59 0 -43 -8 -73 -38 -137 -35 -74 -64 -120 -166 -265 -36 -51 -60
-94 -70 -126 -6 -20 -2 -20 219 -17 l225 4 0 -87 c0 -97 -14 -136 -58 -159
-25 -14 -15 -15 128 -16 l155 0 -32 20 c-37 22 -47 57 -48 165 l0 70 60 0 c33
0 69 -3 81 -8 19 -7 22 -1 40 73 11 44 19 80 17 80 -1 0 -13 -11 -26 -24 -25
-25 -89 -40 -143 -34 l-29 3 0 205 c0 113 3 237 7 275 8 76 7 76 -42 -6 -14
-22 -44 -52 -67 -66 l-43 -25 0 -194 0 -194 -160 0 c-121 0 -160 3 -160 13 0
6 37 64 82 127 44 63 100 142 123 175 23 33 51 78 63 101 25 50 52 150 52 195
0 57 -11 61 -60 23z"/>
</g>
</svg>
