<?xml version="1.0" standalone="no"?>
<!DOCTYPE svg PUBLIC "-//W3C//DTD SVG 20010904//EN"
 "http://www.w3.org/TR/2001/REC-SVG-20010904/DTD/svg10.dtd">
<svg version="1.0" xmlns="http://www.w3.org/2000/svg"
 width="500.000000pt" height="500.000000pt" viewBox="0 0 500.000000 500.000000"
 preserveAspectRatio="xMidYMid meet">

<g transform="translate(0.000000,500.000000) scale(0.100000,-0.100000)"
fill="#be8343" stroke="none">
<path d="M1250 3745 l-1245 -1245 1248 -1248 1247 -1247 1247 1247 1248 1248
-1245 1245 c-685 685 -1247 1245 -1250 1245 -3 0 -565 -560 -1250 -1245z
m2440 -60 l1185 -1185 -1188 -1188 -1187 -1187 -1187 1187 -1188 1188 1185
1185 c652 652 1187 1185 1190 1185 3 0 538 -533 1190 -1185z"/>
<path d="M2423 2961 c-122 -33 -191 -62 -115 -48 44 9 78 -6 97 -42 13 -25 15
-83 15 -371 0 -415 0 -414 -107 -439 -26 -6 34 -9 192 -9 207 -1 225 1 182 12
-60 16 -86 41 -97 92 -5 21 -10 220 -10 442 0 315 -3 402 -12 401 -7 -1 -72
-18 -145 -38z"/>
</g>
</svg>
