<?xml version="1.0" standalone="no"?>
<!DOCTYPE svg PUBLIC "-//W3C//DTD SVG 20010904//EN"
 "http://www.w3.org/TR/2001/REC-SVG-20010904/DTD/svg10.dtd">
<svg version="1.0" xmlns="http://www.w3.org/2000/svg"
 width="500.000000pt" height="500.000000pt" viewBox="0 0 500.000000 500.000000"
 preserveAspectRatio="xMidYMid meet">

<g transform="translate(0.000000,500.000000) scale(0.100000,-0.100000)"
fill="#be8343" stroke="none">
<path d="M1250 3745 l-1245 -1245 1248 -1248 1247 -1247 1247 1247 1248 1248
-1245 1245 c-685 685 -1247 1245 -1250 1245 -3 0 -565 -560 -1250 -1245z
m2440 -60 l1185 -1185 -1188 -1188 -1187 -1187 -1187 1187 -1188 1188 1185
1185 c652 652 1187 1185 1190 1185 3 0 538 -533 1190 -1185z"/>
<path d="M2239 2905 c-11 -38 -23 -79 -25 -90 -3 -11 -8 -29 -11 -39 -3 -12 6
-6 27 17 44 50 81 59 245 55 l140 -3 -145 -115 -144 -115 99 -6 c113 -6 178
-29 234 -82 161 -153 29 -417 -209 -417 -146 0 -258 106 -222 210 6 16 9 30 7
30 -2 0 -36 -47 -74 -105 l-71 -105 58 -29 c139 -70 269 -93 388 -68 141 30
248 107 302 216 23 48 27 68 27 141 -1 94 -17 138 -77 206 -36 40 -131 91
-190 100 -21 4 -38 10 -38 15 0 4 56 51 125 105 119 92 125 98 112 118 -14 20
-24 21 -276 26 l-262 5 -20 -70z"/>
</g>
</svg>
